<svg xmlns="http://www.w3.org/2000/svg" width="834" height="724" preserveAspectRatio="none" style="display:block" viewBox="0 0 2048 1778">
  <defs>
    <linearGradient id="f" x1="1766" x2="1770" y1="1145" y2="1153" gradientUnits="userSpaceOnUse">
      <stop class="stop0" offset="0" stop-color="#92793f"/>
      <stop class="stop1" offset="1" stop-color="#b9994d"/>
    </linearGradient>
    <linearGradient id="e" x1="1662" x2="1669" y1="1076" y2="1067" gradientUnits="userSpaceOnUse">
      <stop class="stop0" offset="0" stop-color="#c6c2ba"/>
      <stop class="stop1" offset="1" stop-color="#fffdf9"/>
    </linearGradient>
    <linearGradient id="d" x1="406" x2="550" y1="1290" y2="1301" gradientUnits="userSpaceOnUse">
      <stop class="stop0" offset="0" stop-color="#553b00"/>
      <stop class="stop1" offset="1" stop-color="#b07e08"/>
    </linearGradient>
    <linearGradient id="c" x1="908" x2="903" y1="1428" y2="1445" gradientUnits="userSpaceOnUse">
      <stop class="stop0" offset="0" stop-color="#f0dbae"/>
      <stop class="stop1" offset="1" stop-color="#f7eed9"/>
    </linearGradient>
    <linearGradient id="b" x1="764" x2="769" y1="1386" y2="1390" gradientUnits="userSpaceOnUse">
      <stop class="stop0" offset="0" stop-color="#c2b8a2"/>
      <stop class="stop1" offset="1" stop-color="#fffcf5"/>
    </linearGradient>
    <linearGradient id="a" x1="1167" x2="1177" y1="1667" y2="1669" gradientUnits="userSpaceOnUse">
      <stop class="stop0" offset="0" stop-color="#543b00"/>
      <stop class="stop1" offset="1" stop-color="#6a4a00"/>
    </linearGradient>
  </defs>
  <path fill="#7d5800" d="M1020 481q5 1 8-1l1-29 1-70 2-203 1-60c0-10-2-37 4-42 5 0 4-1 7 2 5 8 3 39 3 50v92l-2 157-1 104 25 1 2 1q18 1 35 5c-1-15 17-92 21-112l21-104 5-13q2-2 5-2c4 2 3 1 5 5 1 10-38 215-44 229l20 5 4 1 33 10 25-58 56-134 51-124 20-49q2-7 9-10c10 1 1 19-1 24l-13 30q-28 71-59 143l-73 185 21 10 2 1 32 18 57-84 48-71c5-8 22-42 33-38q4 9-2 18l-89 129-35 55q12 7 23 17h1l25 23c23-21 49-49 72-71l143-143 46-47c7-7 22-26 32-23 3 4-2 11-5 14l-59 59-158 160c-17 17-46 44-60 61l19 22 1 2 22 28 125-80 37-25q13-10 28-18 6-4 10-2 6 6 1 11-19 15-39 26l-90 59-63 42 14 26 1 1 14 30c62-26 130-50 193-75l123-47c10-4 56-23 63-22 12 7-4 14-10 16l-195 76-114 45-55 21 10 28v3l7 27 115-19 60-10c10-2 59-14 60-1-5 10-25 11-36 13l-55 8-141 25c1 9 4 27 3 35l1 2 1 16 127 2 187-1 85-1-7-68c-2-11 10-15 18-10a1171 1171 0 0 1 6 202 820 820 0 0 1-263 575 825 825 0 0 1-614 189 843 843 0 0 1-558-270c-129-150-163-327-172-519q-3-56-2-112c0-11-2-46 5-56q1-2 4-2 3 1 5 4c-4 175 0 352 70 516l1-1 21-31c7-9 22-17 29-24 18-20 44-59 72-63 6-1 17 2 24 2l22-4c11-1 28 14 40 20l28 22 22 17 26 23c9 8 62 44 64 47l22 15c16 13 22 21 41 28l6-3c7-5 17-6 24-11 28-22 52-50 82-69q10-7 22-4c5 4 14 13 18 15q45 21 82 57c3 2 17 14 22 13l4-1c24-5 46-33 64-48 15-13 30-14 41-23 13-10 23-25 35-37l23-18 21-21c9-10 14-24 25-33q17-13 37-18c13-2 32-2 44 2q2 1 2 4c9 4 3 3 6 9l2-2 2-6 6-1c9-5 15 4 24-1 20 4 18 12 32 23 21 17 42 21 60 44l44-34 44-38c45-34 85-67 121-111 7-9 35-23 46-29 9-7 28-24 39-17q8 5 13 13c15 18 40-8 50 21 5 10 8 9 16 15l10 9 17 13 2 1 2-1 2-25 6-50q3-61 1-123-138-2-275-1h-133q-8 0-7-10-2-36-8-70a377 377 0 0 0-620-210 365 365 0 0 0-124 283c1 9-8 9-16 9l-125-1H338q-41 1-82-1c-5 0-5-9-3-13l7-2c129-1 259 4 388 2l1-30 1-6 2-22-221-44q-7-1-12-6c0-4-1-3 1-6q9-4 17-1l54 10 164 31q8-32 18-61c-51-23-106-43-157-64l-110-46-73-29-32-13q-6-5 0-12 5-1 11 2l103 42 264 105q4-12 11-23l1-3 12-22-47-32-72-49q-35-23-69-48c-4-2-2-9 2-12 11-1 30 16 40 22l50 35 64 43 41 28c16-23 23-33 41-53l-30-30-45-47-150-154-47-47-6-9q-3-5-1-10 2-2 3-1 9 3 15 10l42 43 109 112 73 74c13 13 37 35 48 49q9-12 21-21l2-2 24-19-18-29-42-69-36-58c-5-9-29-39-21-47q6-2 10 3l39 63 81 129 25-15 2-1 26-13c-17-46-150-365-150-375q0-3 3-5l5-1c6 5 15 29 18 37l27 65c37 89 73 185 112 273l24-8 4-1q18-6 35-9c-4-20-47-222-46-225q2-5 6-7c11 1 15 35 17 45l13 66c8 37 19 80 26 117l27-3z"/>
  <path fill="#fefffe" d="M1237 1164c13-2 32-2 44 2q2 1 2 4c9 4 3 3 6 9v7l3-1q6 3 11 10l2 3c8 7 10 9 13 20l1-2 1 1 1-1 4 8 3-6 1 2 3-5 3 1c11 5 18 7 27 15q3 0 3 2l7 6c7 12 34 12 40 18l2 5 5 4q6 7 7 14l6 6c4 6 16 11 20 16q7-1 7-8c23 13 33 32 55 48l21 12 27 27 19 16 22 19 13 10c5 1 4 6 10 8s18 10 23 11l1 1q4 8 10 13l-3 2c-5 13-22 25-26 34q-1 7-6 7l-2 2-4-3-4 4q2 4 0 6c-8 10-21 19-29 28-8-10-16-26-26-34l-1 4 2 3c5 9 26 29 12 39q-6-1-9 2l1 4-4 5c-6 6-17 13-24 18l-16 13-4 3-12 8-7 4-8 7c-4 1-6 0-7 5q-7-5-10-11c-4-6-6-4-9-8l-9 2-1-1 2-3c-3-5-7-1-12-6-3 2-6 11-6 15l-4 13-4 11c-2 10-10 14-12 21l-5-1-9 10c-9 4-44 21-51 22l-5 2-54 19-11 4-2-1c-12 5-108 28-118 25l-6 2c-65 13-164 9-230 2l-2-1c-33-5-60-9-94-17l-4-1c-10-3-50-12-57-18-4 0-2 1-5-1l-2 1q-6-4-11-12l-2 4-24-25c-12-15-23-35-32-51l-5-11q4 0 7 6c3 1 2 1 5-1q5-6 0-12l-2 7h-1l-1-1c1-6 2-6 5-11l1 2h3l4-3h2l3 5 6 13-4 1q-2 4 0 10l11 4c5-7 6-15 15-15-3 0 7-7 8-8h3q7 2 13-1l6-6 6-7 10-6 6-8c13-6 8-13 24-21l20-18q6-2 8 4c10-12 25-27 30-42l10-11c-5-2-5-1-8-6 6-9 16-4 22-15l9-15q0-3 3-4v-1l5-5 8-2c24-21 39-47 61-68q4-3 10-4h-5v-1l-1 1v-1l4-1-4-1v-1c24-5 46-33 64-48 15-13 30-14 41-23 13-10 23-25 35-37l23-18 21-21c9-10 14-24 25-33q17-13 37-18"/>
  <path fill="#d4a853" d="m1320 1217 1-1 4 8 3-6 1 2 3-5 3 1c11 5 18 7 27 15q3 0 3 2l7 6c7 12 34 12 40 18l2 5 5 4q6 7 7 14l6 6c4 6 16 11 20 16q7-1 7-8c23 13 33 32 55 48l21 12 27 27 19 16 22 19 13 10c5 1 4 6 10 8s18 10 23 11l1 1q4 8 10 13l-3 2c-5 13-22 25-26 34q-1 7-6 7l-2 2-4-3-4 4q2 4 0 6c-8 10-21 19-29 28-8-10-16-26-26-34l-1 4 2 3c5 9 26 29 12 39q-6-1-9 2l1 4-4 5c-6 6-17 13-24 18l-16 13c-2-6-5-5-6-9l3-2-6-3v-6l-2-1c-9-7-7-11-10-20-3-3-7-10-11-11-9-5-20-16-27-24v4h-4l-3-4-1-1-6-4c-3-3-11-4-13-10l3-5c-1-4 0-3-4-5-1-6-16-18-21-23-2 2 0 2-2 6q0-8-5-14c-3-4 2 0-2-5l-6-9-7-11v-16c3-18-8-14-10-30q-3-24 0-49l-9-13 4-1 1-3q0-4-2-7-3-5-2-11c7-22 2-23-13-39l-12-14h-1c-11-16-21-17-27-36"/>
  <path fill="#946700" d="m1320 1217 1-1 4 8 3-6 1 2 3-5 3 1c11 5 18 7 27 15q3 0 3 2l7 6c7 12 34 12 40 18l2 5 5 4q6 7 7 14l-4 3 1 13c-4-2-1-4-5-6l-2 2 2 4v2l-7-1-5-9c-2 3-1 2-5 3-7-2-4-4-12-4q4 5 4 9v1c-3-1-2-6-5-8q-1 3 1 7h-1l-5 4c-2 8-2 12-8 17q-3-5-2-11c7-22 2-23-13-39l-12-14h-1c-11-16-21-17-27-36"/>
  <path fill="#ad862e" d="m1414 1262 5 4q6 7 7 14l-4 3 1 13c-4-2-1-4-5-6l-2 2c-8-5-4-17-2-24z"/>
  <path fill="#ab7e15" d="M1419 1266q6 7 7 14l-4 3q-3 1-4-2 1-4-2-6h-3v-3z"/>
  <path fill="#a17714" d="M1389 1272c5 3 16 11 17 16-2 3-1 2-5 3-7-2-4-4-12-4l-5-1-1-2 8-5-1-3zm-27-41q3 0 3 2-3 4-6 5l-3-2-2 1c0 6 4 5 4 11-2 3-1 2-5 3 0-8-13-15 2-20l5 1z"/>
  <path fill="#c39a3c" d="m1381 1298 2 2c-2 8-2 12-8 17-1-7 5-11 6-19"/>
  <path fill="#ab7e15" d="m1381 1298 2-6h1l4 4-5 4zm-49-83 3 1c-5 4-1 5-5 10q-3-3-1-6zm58 61q-3-3-1-7v3zm13-18q10 4 6 13l-1 1-4-6q-6 2-10 0l-1-1h9c2-3 2-2 1-7"/>
  <path fill="#a17714" d="M1340 1225q5 1 6 3l-1 3-4 2-1-2z"/>
  <path fill="#966d0f" d="M1388 1296q-2-4-1-7c3 2 2 7 5 8v-1c3 2 13 7 13 11l-2 2 8 13-1 2-6-2q-3-14-17-12-3 6-1 11l-6 1v1c3 2 10 3 12 5v2l-1 1q-5-3-8-2v3c3 7 0 35 2 39l6 3c0 9 13 22 21 26q2 6 7 8c-2 4-1 3-4 5h-8c-3-3-2-2-6-3-6 3-8 14-8 19l-3 1v-10c3-18-8-14-10-30q-3-24 0-49l-9-13 4-1 1-3q0-4-2-7c6-5 6-9 8-17zm71-2c23 13 33 32 55 48l21 12 27 27 19 16-2 1-1 3-30-24-8 1-1-2 2-5c-9-16-13-16-31-23l-2-5-24-17-1-4c-5-3-3 1-8-2l4-4-4-2q-2 3-5 2c-3-1-11-8-14-11h-4v-3q7-1 7-8"/>
  <path fill="#7d5800" d="M1404 1456v-5h3q7 8 12 17c5 6 4 6 12 4l2 2q-1 6 2 9c11 9 14 10 21 22l3 7 3 5v4h-4l-3-4-1-1-6-4c-3-3-11-4-13-10l3-5c-1-4 0-3-4-5-1-6-16-18-21-23-2 2 0 2-2 6q0-8-5-14c-3-4 2 0-2-5"/>
  <path fill="#ad862e" d="m1438 1497 1 6 2 2 5-3c5 0 7 10 8 14l-6-4c-3-3-11-4-13-10z"/>
  <path fill="#966d0f" d="m1603 1416 13 10c5 1 4 6 10 8s18 10 23 11l1 1q4 8 10 13l-3 2h-5l-2 4-1 1-4-2c-2-3-1-3 0-8-4-7-9-3-13-6q-9-8-17-18c-5-5-7-2-13-3-4-3-4-4-9-5q3 0 4-2l-2-4c4-3 2 2 8-2"/>
  <path fill="#a17714" d="M1420 1408c11 2 24 27 31 35 4 5 6 0 11 10l4 3-1 4h-2l-7-5-4-3c-3-1-1 1-5-1-4-8 1-13-12-16h-3l-4-6q-5-5-13-7c-4-5 1 1 1-5-3-3-2-2-6-2l-2-2h8c3-2 2-1 4-5"/>
  <path fill="#ad862e" d="m1428 1429 4-3h3v9h-3z"/>
  <path fill="#7d5800" d="m1578 1401 1-3 2-1 22 19c-6 4-4-1-8 2l2 4q-1 2-4 2l-9 2c-6-4 0-1-3-6-2-3 0 4-5-1l1-6c-4-4-1 1-5 0v-4q1-3 5-5z"/>
  <path fill="#a17714" d="m1416 1292 2-2c4 2 1 4 5 6l4 8 1 2 3 1 2 1q0 10 8 17l2-1c2 6 3 5 1 10l-4 2-2-2q-2-7-9-12c1-6-12-20-17-22l-1-3 7 1v-2z"/>
  <path fill="#7d5800" d="M1559 1509c-7-3-6-12-20-14v-3q-6-4-7-11l3-3c2 8 22 15 25 27z"/>
  <path fill="#966d0f" d="M1625 1502c-4-4-12-1-13-7q8-7 18-6l1 2v4q-1 7-6 7"/>
  <path fill="#ab7e15" d="m1386 1371 2-14c7-2 18 16 4 17z"/>
  <path fill="#7d5800" d="m1391 1430 3-1c1 3 12 19 14 20l-1 2h-3v5l-6-9-7-11z"/>
  <path fill="#b89951" d="M1456 1505q5 0 6-5h6l1 1c0 4-7 9-10 11z"/>
  <path fill="#f9e7be" d="m1452 1452 4 3 1 2q-2 4-6 5c-4 0-2 1-5-1l-1-3z"/>
  <path fill="#dfc27f" d="m1489 1541 2-4 1-1q7 4 10 11l-2 5c-3-3-7-10-11-11"/>
  <path fill="#f9e7be" d="M1561 1562q-3 1-4-2v-13h2l4 6h1l1 4zm-148-162c1-4 0-3 3-6q7-1 12 4l-2 2c-6 0-7 3-13 0"/>
  <path fill="#e4ce9d" d="m1466 1456 1-2q7-4 13 2c-3 3-2 2-5 3z"/>
  <path fill="#f9e7be" d="M1427 1304q0-3 3-4 3-2 4 1 1 4-3 6l-3-1z"/>
  <path fill="#c39a3c" d="M1394 1320q6-3 11 2-6 2-11-2"/>
  <path fill="#7d5800" d="M1515 1462c10-10 14 2 25 7 8 3 31 13 34 21v2q-6 3-12 2c-9-3-2-4-7-11l-2-1-4-3-4 3-3-5-3 2-2-1q-4-10-14-7h-2l-3-4z"/>
  <path fill="#ad862e" d="M1555 1483c5 1 4 0 7 3v8c-9-3-2-4-7-11"/>
  <path fill="#966d0f" d="M1420 1351h5c4 6 6 16 10 22 3 4 2 3 7 3l-1 4c3 6 22 20 24 27l-2-1-5 4c-5-4-19-27-28-32-3-3-1-13-11-20q2-4 1-7m83 32q5 9 15 12l20 6-1 3c7 8 16 7 5 22h-1c-4-12 1-17-16-20-1 0-1-5-3-4-11-5-16-6-25-15q2-3 6-4m-2 149c1-19 0-8-5-15l1-2h6c1 5 0 4 4 6 5-1 4-2 7-1 2 3 1 14 0 18l3 4v2c-6 0-13-8-16-12"/>
  <path fill="#e4ce9d" d="M1507 1521c5-1 4-2 7-1 2 3 1 14 0 18l-4-3z"/>
  <path fill="#966d0f" d="m1456 1355-3-2-1-2c5-5 17-6 20 1q0 5 3 6h3c2 5 0 5 4 10-2 4-1 3-4 5-4-5-11-15-13-21q-1 6-4 9l-5-2z"/>
  <path fill="#ab7e15" d="M1456 1355q3-5 8-4l1 1q-1 6-4 9l-5-2z"/>
  <path fill="#966d0f" d="M1499 1449c-8-11-29-22-34-32q3-2 3-5h2c2 3 5 9 8 10h4c1 7 2 5 7 9 3 2 10 8 14 8l1 2h-3z"/>
  <path fill="#a17714" d="M1469 1464q4-1 7 3c5 11 4 32 4 45-7-3-8-3-6-11q1-15-3-31z"/>
  <path fill="#ad862e" d="M1498 1477h7c6 3 5 16 2 21h-3q-6 1-10-3z"/>
  <path fill="#966d0f" d="m1504 1441 4-1h2c3 7-6 5 4 12q-1 2-3 2l-2 3-1 2c-3-3-2-1-3-5l-6-5 2-8z"/>
  <path fill="#ad862e" d="M1488 1374q5 1 7 3l1 5q4 2 7 1-4 1-6 4-9-2-12-9 3 1 5-2zm15 93q-3 3-4 1-3-6 0-11c4-3 3-3 6-3 1 4 0 2 3 5z"/>
  <path fill="#dfc27f" d="m1583 1509 2 1c-1 4 1 11-4 13l-3-2-3 1-1-2z"/>
  <path fill="#c39a3c" d="M1509 1457q5 2 6 5l3 5c-5 2-6-2-15 0l5-8z"/>
  <path fill="#f9e7be" d="m1527 1439 1-9 1-2 6 2h-4c0 5 7 7 3 13l-6 1z"/>
  <path fill="#b89951" d="m1440 1393 3 10q-3 4-9 3h-1l2-12v3z"/>
  <path fill="#f9e7be" d="M1521 1534q5-2 11 1c2 3 1 2 1 7q-3 1-7-1-5-2-5-7"/>
  <path fill="#a17714" d="M1482 1368c6 4 1 3 6 6l2 2q-2 2-5 2c-5-1-6 0-7-5 3-2 2-1 4-5"/>
  <path fill="#f9e7be" d="m1528 1444-10-1v-2q5-4 5-10l1-2c1 6 0 6 3 10z"/>
  <path fill="#f9f1dd" d="M1634 1469q-1 8-9 5l-3 1v-3q5-3 11-4"/>
  <path fill="#f9e7be" d="m1488 1398 6 3c2 4 2 2 1 6l-1-1q-4 3-7 2-1-4 1-10m-6 24c3-8 7-3 15-6-2 8-6 6-15 6m-6-23 6 1v9l-5-1q-2-3-1-9m100 64q3 1 3 4-1 5-4 7h-2q-4-6 3-11m-53 93 4 5q1 4-3 7l-5-6c1-4 1-3 4-6"/>
  <path fill="#e4ce9d" d="m1568 1420 3 1v2q-4 3-9 4v1q-3-8 6-8"/>
  <path fill="#f9e7be" d="m1490 1501 4 3q2 4 0 10-7-4-4-13"/>
  <path fill="#e4ce9d" d="M1463 1474h6v6l-4 2q-3-2-2-8"/>
  <path fill="#f9e7be" d="M1539 1539q8 0 10 8h-7c-3-3-2-3-3-8m-12 26q6 2 7 8h-7c-2-3-1-3 0-8"/>
  <path fill="#966d0f" d="M1584 1497h7c2 2 1 1 2 5h-5c-3-2-2-1-4-5"/>
  <path fill="#e4ce9d" d="m1452 1372 3 1c0 4-1 4-3 8-3-2-2 0-3-3q0-4 3-6"/>
  <path fill="#f9e7be" d="M1547 1519a3 3 0 0 1 6 1 3 3 0 1 1-6-1"/>
  <path fill="#c39a3c" d="M1388 1336h3q5 2 6 6l-6-1c-3-3-2-1-3-5"/>
  <path fill="#d4a853" d="m1398 1447 6 9c4 5-1 1 2 5q5 6 5 14c2-4 0-4 2-6 5 5 20 17 21 23 4 2 3 1 4 5l-3 5c2 6 10 7 13 10l6 4 1 1 3 4h4v-4c7 8 18 19 27 24 4 1 8 8 11 11 3 9 1 13 10 20l2 1v6l6 3-3 2c1 4 4 3 6 9l-4 3-12 8-7 4-8 7c-4 1-6 0-7 5q-7-5-10-11c-4-6-6-4-9-8l-9 2-1-1 2-3c-3-5-7-1-12-6-3 2-6 11-6 15l-4 13-4 11c-2 10-10 14-12 21l-5-1-9 10c-9 4-44 21-51 22l-5 2q3-8 3-17v-27l5-12c15-29 9-34 10-63 1-14 12-36 14-51l1-32 4 3c3-6 5-23 6-30q3 0 3-2z"/>
  <path fill="#dfc27f" d="M1438 1513c4-4 2 2 10-1l6 4 1 1 3 4h4v-4c7 8 18 19 27 24 4 1 8 8 11 11 3 9 1 13 10 20l2 1v6l6 3-3 2c1 4 4 3 6 9l-4 3-12 8-7 4-8 7c-4 1-6 0-7 5q-7-5-10-11c-4-6-6-4-9-8q5-1 7-5c-8-5-20-7-28-11 1-15-13-14-4-29 0-1-5-18-5-24l1-1-5-7 7-7z"/>
  <path fill="#a17714" d="M1462 1517c7 8 18 19 27 24 4 1 8 8 11 11 3 9 1 13 10 20l2 1v6l6 3-3 2c1 4 4 3 6 9l-4 3c-2-5-12-20-16-25l-3 2-1-3 2-2-3-7q-1-9-9-8c-4 1-3 2-7 1l-1-2 2-4c-5-3-5 0-8-2l3-4q-7-9-17-14l-1-7h4z"/>
  <path fill="#966d0f" d="M1471 1596c1 4 12 12 14 17l5 2c-4 1-6 0-7 5q-7-5-10-11c-4-6-6-4-9-8q5-1 7-5"/>
  <path fill="#b89951" d="M1438 1513c4-4 2 2 10-1l6 4 1 1q-9 6-18 0z"/>
  <path fill="#f9f1dd" d="m1498 1608-3-4q1-8 10-10v10z"/>
  <path fill="#ad862e" d="M1487 1553q8 0 9 8l-9-1z"/>
  <path fill="#f9f1dd" d="M1458 1558q-2-6 4-10c2 3 2 2 2 6q5-7 13-5l1 2q-4 5-10 7c-5 2-5 5-10 0"/>
  <path fill="#dfc27f" d="M1458 1558q-2-6 4-10c2 3 2 2 2 6z"/>
  <path fill="#f9e7be" d="m1488 1560 4 2q7 8 0 17l-2-2c-3-2-3-13-2-17"/>
  <path fill="#f9f1dd" d="m1483 1583 3 2q2 5-1 11l-4-4c-1-4 0-4 2-9m9 8 5 3c-1 4-1 3-4 7l-1 1-1-2q-2-4 1-9"/>
  <path fill="#e4ce9d" d="M1443 1553h3l1 3-1 2q-3 1-4-1t1-4"/>
  <path fill="#a17714" d="m1398 1447 6 9c4 5-1 1 2 5q5 6 5 14c2-4 0-4 2-6 5 5 20 17 21 23 4 2 3 1 4 5l-3 5c2 6 10 7 13 10-8 3-6-3-10 1l-1 4-7 7 5 7-1 1c0 6 5 23 5 24-9 15 5 14 4 29 8 4 20 6 28 11q-2 4-7 5l-9 2-1-1 2-3c-3-5-7-1-12-6-3 2-6 11-6 15l-4 13-4 11h-2q-5-6 0-12l1-12 2-1 4-17c1-6 2-2 0-8l-2-6c-6-11 1-12-2-24l1-3-3-13v-2q-3-11-7-18l-3-1c-2-5 2-4 1-7l-5-17-8-14c-2-8-1-19-13-22z"/>
  <path fill="#c39a3c" d="M1420 1490v-2c3-1 9 5 12 6l2-2c4 2 3 1 4 5l-3 5c2 6 10 7 13 10-8 3-6-3-10 1l-10-3c-1-3-3-1-3-3-1-4-2-13-5-17"/>
  <path fill="#966d0f" d="M1434 1492c4 2 3 1 4 5l-3 5q-3-3-3-8z"/>
  <path fill="#dfc27f" d="m1428 1510 10 3-1 4-7 7z"/>
  <path fill="#966d0f" d="m1381 1484 4 3c5 8-5 17 3 26-3 3-3 1-4 6l3 5-10 15 2 3c-2 7-8 26-8 32q2 11 2 26-5 18-12 33l-2 2-3-5c15-29 9-34 10-63 1-14 12-36 14-51zm-30 158 3-2 2 1c1 9-2 15 2 23 4 2 6-2 10 0 0 9-13 9-15 20l-5 2q3-8 3-17z"/>
  <path fill="#e4ce9d" d="M1421 1549c5-2 4-3 8-2l3 2-1 3q1 4-4 5t-6 7l4 5q-1 3-4 3c-8-5-3-14 0-21z"/>
  <path fill="#ad862e" d="m1421 1551-4 3-1-1c-2-8 2-20 12-17h1l3 13-3-2c-4-1-3 0-8 2z"/>
  <path fill="#c4a152" d="M1428 1536h1l3 13-3-2c-4-1-3 0-8 2 2-7 3-7 7-13"/>
  <path fill="#f9e7be" d="M1435 1582c-7 1-13-5-8-10 4 0 3 1 6 4z"/>
  <path fill="#c4a152" d="M1428 1620h-6l-1-1q2-7 8-11z"/>
  <path fill="#a17714" d="M1383 1617c4-6 7-15 13-17l2 1q1 6-4 9c2 4 4 1 5 5-3 4-8 2-12 6z"/>
  <path fill="#ad862e" d="M1396 1584c9-1 6-5 13-6h1l2 10q-3 8-11 5h-1q-3-4-4-9m-14 33 4 3q-4 6-9 8l-2-2-2 3q-3-2-4-5 2-9 12-7"/>
  <path fill="#c39a3c" d="M1382 1617c-6 2-5 2-6 9l-2 3q-3-2-4-5 2-9 12-7"/>
  <path fill="#c4a152" d="M1389 1544h7l14 18h-3z"/>
  <path fill="#a17714" d="m1400 1593-3 3h-3c-3-3-2-1-4-6l3-6h3q1 5 4 9"/>
  <path fill="#f9f1dd" d="M1407 1618q6 1 10 6c0 4 0 3-2 7h-3q-6-6-5-13"/>
  <path fill="#f9e7be" d="M1381 1551q5 0 8 2c1 4 1 3-1 7-5 0-4 0-7-3zm17-55 7 3c0 3 0 2-3 5h-7l-1-2c1-4 1-3 4-6m9 7 4 1v3c-3 4-2 3-8 5q-2-2-2-5 1-3 6-4m5 101h9c2 3 1 2 1 7h-5zm-7 4 5 3c1 4 0 4-1 8l-5-3c-1-3-1-3 1-8m8-12 4 4-4 4-5-2c1-4 2-3 5-6"/>
  <path fill="#cac0a8" d="M839 1535q6-2 8 4l-1 1c-30 35-64 68-93 104-4 6-12 19-17 23l-2 3-8-11-3-6-2-2-4-6-2-4-4-3-1-1c4-7 1-8 7-16l11 4c5-7 6-15 15-15-3 0 7-7 8-8h3q7 2 13-1l6-6 6-7 10-6 6-8c13-6 8-13 24-21z"/>
  <path fill="#e4ce9d" d="M839 1535q6-2 8 4l-1 1c-8-3-13 16-21 19q-5-2-10-1l4-5z"/>
  <path fill="#fefffe" d="M723 1653c5-3 18-4 25-5l-8 8q-1 4-5 9l1 2-2 3-8-11z"/>
  <path fill="#f9f1dd" d="M726 1659q7-5 14-3-1 4-5 9l1 2-2 3zm47-64 27-8q-4 8-12 11c-5 1-16 5-21 3zm16-13 20-6-8 9q-10 3-21 4l-1-1zm-58 46 12-3q-4 8-11 13h-7l-3-1q6-4 9-9"/>
  <path fill="#f9e7be" d="M711 1638c1-5 12-11 16-13l-5 12 3 1c-7 0-5 0-10 3z"/>
  <path fill="#f9f1dd" d="M717 1645c4-4 4-4 10-4l5-1c-4 5-5 7-11 11z"/>
  <path fill="#fefffe" d="M772 1614h2v2q-6 10-16 19l-18 2-2-1c12-16 17-15 34-22m14-14h1v3c-7 7-22 12-32 15l-2-1-1-1c8-12 20-12 34-16m-41 38q6-1 8 1v2c-7 6-8 5-17 7l-5 1-2-1c2-8 10-9 16-10"/>
  <path fill="#f9f1dd" d="m751 1609 1 2q-3 10-14 14l-1-3q4-9 14-13"/>
  <path fill="#966d0f" d="M1237 1164h6v1l-1 1 1 2c-4 6-18 15-21 23l-3 3q-2 8-7 15-6 7-14 12l-4 3-8 5v1l-7 11-12 8-17-3-2 3h-2c-13 7-19 19-30 29l-8 8-3 4q-8 8-17 13l-4 2c-14 2-19 7-29 15l-9 10-7 7-19 16-9 7-2 2q-6 4-12 4h-5v-1l-1 1v-1l4-1-4-1v-1c24-5 46-33 64-48 15-13 30-14 41-23 13-10 23-25 35-37l23-18 21-21c9-10 14-24 25-33q17-13 37-18"/>
  <path fill="#dfc27f" d="m1242 1166 1 2c-4 6-18 15-21 23q-6-4-4-12c5-6 16-10 24-13"/>
  <path fill="#f9e7be" d="m1212 1209-1-2c1-9-8-18-2-27h3l6 12 1 2q-2 8-7 15"/>
  <path fill="#7e7151" d="M1209 1184q6 6 5 13-5-5-5-13"/>
  <path fill="#f9e7be" d="M1194 1224c-1-8 0-30 6-34 3 5-2 21-2 30v1zm-27 25c0-5-1-14 1-18 6 0 2 7 5 10 3-2 2-2 5-2l1 2zm19-19q-3 0-4-3c0-4 0-13 4-14z"/>
  <path fill="#775300" d="m1101 1332 1 3-9 11q-3 1-4 5l-5 5-2 3-7 6-3 4-7 7-2 3-6 7-4 4-9 9-2 4-8 7-3 5-9 8-3 5-11 11-2 4-7 6-3 4-6 6-4 5-11 11-3 4-12 13-3 3-7 9-4 4-9 10-5 5-7 8-3 4-8 7-4 6-7 7q-3 2-5 6l-9 9-3 4-10 11v1l-14 14c-5 5-15 14-19 21-7 6-17 18-24 26l-5 6-13 14-3 4-11 11q-3 2-5 6l-7 8-3 3-2 1c-4 0-2 1-5-1l217-239 76-83 38-42z"/>
  <path fill="#966d0f" d="m1272 1172 5-2h6c9 4 3 3 6 9v7l3-1q6 3 11 10l2 3c8 7 10 9 13 20l1-2 1 1c6 19 16 20 27 36l-10-4q-3 2-4 5 4 0 7 3v1q0 3-4 4l-9-1-2 3 2 3 1 5v3q5 4 5 7h-6c-10-23-30-45-31-70-12-15-14-31-23-39z"/>
  <path fill="#e4ce9d" d="M1305 1198c8 7 10 9 13 20l1-2 1 1c6 19 16 20 27 36l-10-4q-3 2-4 5h-1q-7 1-14-3 1-3-1-7l-2-3 2-1c-8-6-6-12-7-21l-3 1c-2-3-3-18-2-22"/>
  <path fill="#f9e7be" d="m1317 1240 3-6 6 13q-4 0-9-3l-2-3z"/>
  <path fill="#f9e7be" d="m1303 1195 2 3c-1 4 0 19 2 22l3-1c1 9-1 15 7 21l-2 1 2 3q2 4 1 7-6-4-7-10c-8-12-10-20-11-34 2-7-2-6 3-12m15 56q7 5 14 3h1q4 0 7 3v1q0 3-4 4l-9-1q-6-2-11-7z"/>
  <path fill="#a1916d" d="M1318 1251q7 5 14 3h1q4 0 7 3v1c-12 2-14-4-24-4z"/>
  <path fill="#e4ce9d" d="M1292 1185q6 3 11 10c-5 6-1 5-3 12l-7-8z"/>
  <path fill="#ab7e15" d="M1283 1170c9 4 3 3 6 9v7l-1 1c-5-10-10-9-11-17z"/>
  <path fill="#775300" d="m748 1684 57-68c6-6 27-34 33-36 2 5-12 20-15 24l-48 56-23 28-2 4-24-25c-12-15-23-35-32-51l-5-11q4 0 7 6c3 1 2 1 5-1q5-6 0-12l-2 7h-1l-1-1c1-6 2-6 5-11l1 2h3l4-3h2l3 5 6 13-4 1q-2 4 0 10c-6 8-3 9-7 16l1 1 4 3 2 4 4 6 2 2 3 6 8 11z"/>
  <path fill="#7d5800" d="M703 1595h3l4-3h2l3 5 6 13-4 1q-2 4 0 10c-6 8-3 9-7 16-5-10 10-16 3-25l-1 1 1 3-4 2-1-1 2-4-5-6 2-9-3-1z"/>
  <path fill="#7d5800" d="M712 1613q-4-1-4-6l2-1q3 2 3 6z"/>
  <path fill="#a1916d" d="m1046 1330 9-10-1 3c4 2 15 1 21 1l-133 142-37 40-1-1 30-34 69-74 31-34-25-1 2-2 9-7 19-16z"/>
  <path fill="#f9f1dd" d="m1020 1353 21-2 4-3 1 1c-1 3-8 12-11 12-5-4-10-2-17-2l-7 1z"/>
  <path fill="#f9e7be" d="M1046 1330q9 0 17 2v1c-6 4-18 6-24 4z"/>
  <path fill="#7d5800" d="M1237 1164c13-2 32-2 44 2q2 1 2 4h-6l-5 2c-4-3-4-4-10-4l-1 1-5 1-8 3-4 2-8 7q-9 9-13 19l-1 3c3 5 0 18 0 25h-1l-8-2c-6-1-5 0-8-3l-4 1-10 8-4 8c-6 7-8 10-17 13l-1 1h-6l-1 1q-4-3-9-4l-1-1-4-1-2-1h2l2-3 17 3 12-8 7-11v-1l8-5 4-3q9-4 14-12t7-15l3-3c3-8 17-17 21-23l-1-2 1-1v-1z"/>
  <path fill="#f9e7be" d="M1222 1204c3 5 0 18 0 25h-1l-8-2c-6-1-5 0-8-3l11-12z"/>
  <path fill="#d4a853" d="m1216 1212 2 9q0 4-5 6c-6-1-5 0-8-3z"/>
  <path fill="url(#a)" d="m1157 1735 20-106q2-14 7-26l1 1-22 129z"/>
  <path fill="#878276" d="M827 1718c5-2 30-36 35-42l84-105c12-15 31-41 44-54q-6 10-15 19l-132 168-12 15z"/>
  <path fill="#969287" d="M1169 1255c3 8 17 8 23 13v3c-6 1-17-13-21-7-6 8 9 16 11 24l-11-13-1 46c-3-10-2-25-2-35-7 10-41 60-47 66l-1-1c10-17 44-59 49-74l-1-1-15 15h-1c1-3 13-17 16-19z"/>
  <path fill="#966d0f" d="M1391 1420v16l7 11-4 8q0 2-3 2c-1 7-3 24-6 30l-4-3c4-24 1-43 10-64"/>
  <path fill="#dfc27f" d="M1391 1457c-1-5-2-16 0-21l7 11-4 8q0 2-3 2"/>
  <path fill="#966d0f" d="m913 1446 4 3c-11 18-14 23-30 37-5-2-5-1-8-6 6-9 16-4 22-15l9-15q0-3 3-4"/>
  <path fill="#775300" d="M1373 1306q-1 6 2 11 3 3 2 7l-1 3-4 1-3 2-3 2-4 4-5 5-6 9c-1 5 0 6-5 9-11-10 18-33 26-38z"/>
  <path fill="#7e7664" d="m1281 1708 8-81c2-16 3-38 7-54 1 13-4 48-6 62l-7 74z"/>
  <path fill="#dfc27f" d="m1201 1225 4-1c3 3 2 2 8 3l8 2c-5 3-6 2-12 0-7 2-5 16-10 21q-2-9-7-14l-2 1 1 12-4-8 4-8z"/>
  <path fill="#f9f1dd" d="M1201 1225c3 3 1 14-1 17-5-2-4-6-9-9z"/>
  <path fill="#cac0a8" d="M843 1621c4-7 14-16 19-21h5l-2 2q3 1 8-1l4 3c-3 4-29 15-34 17"/>
  <path fill="#f9f1dd" d="M1262 1168c6 0 6 1 10 4l1 1-3 1c-2 3-2 19-1 22-4-2-2-2-5-1l-2 5v1c-2-3-1-15-1-18v-14z"/>
  <path fill="#7e7151" d="m1261 1169 1-1q2 16 0 32v1c-2-3-1-15-1-18z"/>
  <path fill="#dfc27f" d="m1327 1261 9 1 6 2v6q5 0 8 3v4l-22-5-1-5-2-3z"/>
  <path fill="#f9e7be" d="m1327 1261 9 1 6 2v6l-15-3-2-3z"/>
  <path fill="#a1916d" d="m1327 1261 9 1 6 2c-5 2-10-1-17 0z"/>
  <path fill="#f9f1dd" d="M968 1511q-3 5-7 7c-7-2-23 13-36 13l7-8c4 0 29-10 36-12"/>
  <path fill="#e4ce9d" d="m1328 1272 22 5 4 2 1 2-1 1h-21q0-3-5-7z"/>
  <path fill="#7e7151" d="m1328 1272 22 5 4 2c-5 1-18-4-26-4z"/>
  <path fill="#a0a4a5" d="M937 1518c9 3 39-16 50-15-4 3-13 6-19 8-7 2-32 12-36 12z"/>
  <path fill="#e4ce9d" d="M1223 1201q4-10 13-19l1 15-2 1v2q-6-7-11 2z"/>
  <path fill="#969287" d="m1011 1441-1 3 1 3 16-5c-4 5-24 9-31 11l3-4 7-6z"/>
  <path fill="#f9f1dd" d="m1011 1441-1 3 1 3-12 2 7-6z"/>
  <path fill="#969287" d="M950 1504c5 1 41-16 45-14l1-1-50 19z"/>
  <path fill="#a0a4a5" d="M867 1600c16-4 38-16 49-18-1 3-38 18-43 19q-5 2-8 1z"/>
  <path fill="#969287" d="M914 1542c11 3 36-16 44-14-11 6-36 16-48 20z"/>
  <path fill="#ab9f8c" d="m1256 1170 5-1v14q0-5-2-7c-3 4-2 29-4 37h-2c-1-9 4-32 3-43"/>
  <path fill="#969287" d="M1108 1286c4 2 18 0 23 0l9-8 1 1-4 5v4q-6 0-10 5l-1-1 1-2c-2-3-19-2-22 0z"/>
  <path fill="#a0a4a5" d="M801 1667c11 0 37-18 44-13h-1c-14 3-30 12-46 17z"/>
  <path fill="#c4a152" d="m1357 1341 5-5c-1 6 0 35-3 37-1-9 1-27-2-32"/>
  <path fill="#f9f1dd" d="m1082 1359 2-3 10 1 1 2-5 2v4c-6-2-10 2-15 0z"/>
  <path fill="#ab9f8c" d="m1082 1359 2-3 10 1 1 2z"/>
  <path fill="#a0a4a5" d="m1244 1175 4-2-4 46v1-2l-1-1c0-6 2-40 1-42"/>
  <path fill="#ab7e15" d="m918 1440 8-2q1 7-2 10l-7 1-4-3v-1z"/>
  <path fill="#969287" d="M960 1492c8 1 37-16 42-15v1c-8 4-38 17-45 17z"/>
  <path fill="#a0a4a5" d="M889 1570c11 2 35-16 40-16v1c-15 10-25 15-43 19z"/>
  <path fill="#969287" d="M1088 1303c4 2 32-1 40-1-4 3-38 4-44 3zm-313 393c6 1 33-15 41-11l-1 1c-16 1-28 11-43 13z"/>
  <path fill="#a0a4a5" d="M787 1682c7 0 30-12 32-10l-37 16q2-5 5-6"/>
  <path fill="#969287" d="M975 1475c6 1 28-11 37-12v1c-5 3-34 14-40 15z"/>
  <path fill="#a0a4a5" d="M925 1531c13 0 29-15 36-13-11 6-27 15-39 17z"/>
  <path fill="#969287" d="M990 1459c8 2 29-10 31-8q-17 9-35 13z"/>
  <path fill="#ab9f8c" d="m1148 1250 4 1q-5 5-2 11l7 2h1c-5 2-14 4-19 3q3-3 7-2z"/>
  <path fill="#969287" d="M819 1647c7 3 20-10 27-10v1c-3 3-27 14-32 15zm547-315 3-2-1 27q-3-13-2-25"/>
  <path fill="#7e7664" d="M925 1736c2-5 11-25 15-27l-1 2h1l-13 26z"/>
  <path fill="#dfc27f" d="M1093 1346q7-2 12 1c-2 5-12 4-16 4q1-4 4-5m-190 209c5 0 16-5 23-7-5 4-21 10-28 13q2-4 5-6"/>
  <path fill="#ab9f8c" d="M876 1585c7 0 25-13 30-10-4 3-24 10-28 11z"/>
  <path fill="#969287" d="M1008 1439c9 0 20-7 27-6v1l-24 7-5 2zm26-29c4 1 17-3 24-3-1 2-23 7-27 8zm-12 13c3 1 18-4 23-4-3 3-20 7-26 9zm201-222 1 1c1 6 4 23-2 27 0-7 3-20 0-25z"/>
  <path fill="#ab9f8c" d="M1235 1200v-2l2-1q1 12-2 24z"/>
  <path fill="#dfc27f" d="M1269 1196c-1-3-1-19 1-22q2 11 0 21z"/>
  <path fill="#969287" d="M1044 1399c4 1 13-1 19-1l-21 5zm21-23 19-2-21 5z"/>
  <path fill="#a1916d" d="m1090 1365-18 3 3-4c5 2 9-2 15 0"/>
  <path fill="#ab9f8c" d="M1057 1386h11l-16 4z"/>
  <path fill="#c4a152" d="M1346 1359c5-3 4-4 5-9v20c-1-3-3-10-5-11"/>
  <path fill="#a0a4a5" d="M1101 1332h11l-10 3z"/>
  <path fill="#453000" d="m1087 1531 4 2c0 2-76 198-81 207l-2-2c-1-7 16-45 19-54l40-101z"/>
  <path fill="#775300" d="m1241 1497 15-126c2-16 6-68 12-79h1c3 6-6 60-7 71l-10 86-6 52-3 5h-1z"/>
  <path fill="#453000" d="m1087 1424 1 2 1 1c-1 4-87 152-91 157l-2-3c0-4 84-147 91-157"/>
  <path fill="#7e7664" d="M1192 1391c0 7-21 61-25 72l-27 75q-13 39-28 77v-1c-1-4 37-106 41-116 13-34 25-74 39-108"/>
  <path fill="#969287" d="m1205 1260 2 2-39 79-18 36-1-1c2-10 50-107 56-116"/>
  <path fill="#7e7664" d="m1233 1240 1 3c0 6-40 125-45 135l-1-2zm-4 193 1 1-3 14-33 121-1-1 25-95z"/>
  <path fill="#878276" d="M988 1552c0 7-68 108-78 124l-1-2 79-123"/>
  <path fill="#453000" d="m1241 1497 1 9h1l3-5c-1 7-2 37-7 41l-2-2c-2-9 2-32 4-43"/>
  <path fill="#7e7664" d="m1340 1403 1 1c1 11-3 90-6 100-1-3 4-91 5-101"/>
  <path fill="#a1916d" d="m1322 1570 1 2c2 5 2 59 2 67h-1c-4-5-3-59-2-69"/>
  <path fill="#775300" d="m1225 1600 3 2c1 5-2 31-4 37l-3-2c-2-8 2-28 4-37"/>
  <path fill="#969287" d="M1150 1335c2 6-25 50-30 58v-3zm-256 269h1c0 1-54 28-59 32h-2l1-2c7-5 51-28 59-30m166-184 1 1c-1 5-28 44-33 50l-1-1z"/>
  <path fill="#7e7664" d="M1312 1418c2 7-2 56-4 64-3-6 3-56 4-64"/>
  <path fill="#969287" d="M1117 1314q-6 1-9 8c5 2 9-2 13 0q-8 3-14 3l-8 6v-1c4-5 10-14 15-18h6q-1 3-3 2m11 94 2 1-14 27c-1-5 9-22 12-28"/>
  <path fill="#7e7664" d="M1074 1710c2 4-7 24-9 31-2-6 7-25 9-31m237-421 2 2-2 27-2-2c-1-6 1-20 2-27m-68-12 1 2c1 5-3 17-5 23h-1zm-372 264 1 1c0 3-7 10-10 15h-1c0-4 7-12 10-16m460-34 1 1c2 4 2 14 2 18-3-3-3-15-3-19"/>
  <path fill="#a0a4a5" d="M1101 1378q-2 8-8 15c-1-5 5-11 8-15"/>
  <path fill="#cac0a8" d="M1120 1312q5 0 9 2h-12q2 1 3-2"/>
  <path fill="#c4a152" d="M504 1240c0-6-4-14 0-17h4l1-6h-2l-4 2-2-1c1-4 0-2 3-5 10-4 38 12 41 21l3 1v4l1 1q3 0 3-3c-2-7-18-16-24-24l28 22 22 17 26 23c9 8 62 44 64 47l22 15c16 13 22 21 41 28l6-3c7-5 17-6 24-11 28-22 52-50 82-69q10-7 22-4c5 4 14 13 18 15q45 21 82 57c3 2 17 14 22 13l4-1v1l4 1-4 1v1l1-1v1h5q-6 1-10 4c-22 21-37 47-61 68l-8 2-5 5v1q-3 1-3 4l-9 15c-6 11-16 6-22 15 3 5 3 4 8 6l-10 11c-5 15-20 30-30 42q-2-6-8-4l-20 18c-16 8-11 15-24 21l-6 8-10 6-6 7-6 6q-6 3-13 1h-3c-1 1-11 8-8 8-9 0-10 8-15 15l-11-4q-2-7 0-10l4-1-6-13-3-5h-2l-4 3h-3l-1-2c-3 5-4 5-5 11l1 1h1l2-7q5 6 0 12c-3 2-2 2-5 1q-3-6-7-6l5 11-25-31c-6-7-21-36-23-45-4-19-3-40-18-56-8-16 0-29-15-49-6-10-16-15-23-24q-15-23-28-48c-8-12-22-20-27-33l5-2 8 1 1-1c-3-5-7-11-4-16l-3-3-3 7q-7 0-10-6l2-1 1-1-2-3 1-1 4-1v-1c-3-5-16-7-17-14 3-4 4-1 9-5q0-2-3-2-3 2-6 1-1-5 1-10 1-2 4-1c4-2 2-1 4-5q1-4-2-9l1-1q1-6-5-7h-2q-3 3-7 1l-2-2-2 1-5-4 3-1z"/>
  <path fill="#b89951" d="M737 1362c7-5 17-6 24-11 28-22 52-50 82-69q10-7 22-4c5 4 14 13 18 15q45 21 82 57c3 2 17 14 22 13l4-1v1l4 1-4 1v1l1-1v1h5q-6 1-10 4c-22 21-37 47-61 68l-8 2-5 5v1q-3 1-3 4l-9 15c-6 11-16 6-22 15-5-11-21-14-31-23q0-4 3-6c1-4-8-13-2-21v-1q1-4-1-6c-9 16-2 22-5 28q-5-1-8-4-6-6-12-7c-5-2-12-10-17-14-4-2-12-9-18-11-2-1-2-7-7-9h-1l-8-2v-1l-4-1c-9-1-11-3-19-8l-3-14-1-1c-2-5-6-6-7-11l-2-3z"/>
  <path fill="#fefffe" d="M821 1306c4-7 22-19 30-23 1 11 2 14 0 25-1 10 2 22 0 27-13 3-12 17-11 28l-8 4-6 13-20 8c-11 6-12 17-25 18h-1l-8-2v-1l-4-1c-9-1-11-3-19-8l-3-14-1-1c-2-5-6-6-7-11 9-8 16-5 25-11l25-23 1-1c9-6 22-19 32-27"/>
  <path fill="#cac0a8" d="M744 1389c13-4 18-11 31-15q-12 8-24 19v1q5 1 10-3 5-6 12-6l-1 3h4v1q-6 6-8 13c-9-1-11-3-19-8l-3-14 14-6z"/>
  <path fill="url(#b)" d="M761 1391q5-6 12-6l-1 3q-3 7-10 10l-2-1q-1-3 1-6"/>
  <path fill="#f9f1dd" d="m821 1306-1 3c3 2 1 1 5 1-2 4-2 3-2 7-3 1-26 16-28 19l-6-3c9-6 22-19 32-27"/>
  <path fill="#cac0a8" d="M772 1403q5-2 9-7c7-6 29-26 39-26-7 7-40 26-41 34l1 2z"/>
  <path fill="#969287" d="M795 1336c2-3 25-18 28-19-2 5-23 18-28 19"/>
  <path fill="#ab9f8c" d="m820 1309 18-10v1l-13 10c-4 0-2 1-5-1"/>
  <path fill="#cac0a8" d="m830 1338 2 1c-1 3-9 6-13 8-12 6-25 18-36 23l-1-2-10 2h-2l-1-2 2-2c6-3 14-1 17-3zm-2 15 2 1-23 16h-2v-2q11-10 23-15"/>
  <path fill="#a0a4a5" d="M816 1333c-2 4-20 11-24 13l-1-1c2-3 20-11 24-13"/>
  <path fill="#cac0a8" d="M765 1361h1c0 3-13 9-18 15h-1v-2q8-9 18-13"/>
  <path fill="#7d5800" d="M865 1278c5 4 14 13 18 15q45 21 82 57c3 2 17 14 22 13l4-1v1l-10 5h-1q-4-5-10-8l-1-1-11-7-1-1-14-10 2-3c-2-4-21-11-26-15-1-1 2-2-1-6l-2 1c-6 7-6 0-16 3l-2-3 2-1v-2l-14-4-5 3-5-5 2-10q-6-5-13-2l-2-1q1-5 4-9l-4-3-1-1v-2z"/>
  <path fill="#966d0f" d="m991 1363 4 1-4 1v1l1-1v1h5q-6 1-10 4c-22 21-37 47-61 68l-8 2-1-6-2-10-3-6 4-4q9 4 15 13l9-10q5-4 7-10c1-3 10-11 12-14q5-2 6-6l9-11 6-8h1z"/>
  <path fill="#fefffe" d="M823 1440c-1-7-4-20 5-23q4 5 6 11c1-3-1-7 2-13h1c3 3 4 13 3 16-4 7-4 5-5 14v2q-6-6-12-7"/>
  <path fill="#a17714" d="M851 1335h2l3-3c-1 5 0 4-3 6l-5 1c-8 12 0 15-2 24l-1 1h-2l-14 16-4-1 6-13 8-4c-1-11-2-25 11-28"/>
  <path fill="url(#c)" d="M904 1429v-2c3 0 9 5 13 7l1 6-5 5h-23q4-7 11-12z"/>
  <path fill="#dfc27f" d="M904 1429c4 4 7 5 8 12q-8 0-11-8z"/>
  <path fill="#f9f1dd" d="m891 1411-3-3c1-8 11-11 14-8s-1 13 6 18h4l3 6-1 2h-1q-6-2-11-7c-4-4-5-5-11-8"/>
  <path fill="#a17714" d="m858 1304 5 9q2 2 2 6c-6 0-3 1-8 3v11l-3 3h-2l-1-1c2-5-1-17 0-27l4-1z"/>
  <path fill="#966d0f" d="M863 1313q2 2 2 6c-6 0-3 1-8 3l-1-4z"/>
  <path fill="#dfc27f" d="m858 1304 5 9-7 5c1-5 0-6-1-11z"/>
  <path fill="#ab7e15" d="m900 1321-2 2c3 3 9-1 12 1q-3 5-4 12-5 1-7-1l-4-8q-3 2-6-1v-1c4-3 4-5 9-7z"/>
  <path fill="#f9f1dd" d="M970 1360q6 3 10 8l-6 8h-10c-3-4 3-13 6-16"/>
  <path fill="#7d5800" d="M851 1283c4 6 2 4 7 6l4 13-4 2-3 3-4 1c2-11 1-14 0-25"/>
  <path fill="#f9f1dd" d="m849 1429 1-2q1-6 5-12l1 1c1 3 5 17 4 19q-5 2-11-1z"/>
  <path fill="#7d5800" d="M862 1302c4 6 13 18 15 23h-6l-1-2-4-3-1-1q0-4-2-6l-5-9z"/>
  <path fill="#ad862e" d="m958 1383-1-2c2-3 1-2 5-4l1 1q-1 6 2 9-2 4-6 6h-3l-6 1-1-2c4-6 7-1 9-9"/>
  <path fill="#966d0f" d="M871 1325h6c2 8 9 14 8 22l-2 1c-6-6-7-16-10-20l-4 1v-1z"/>
  <path fill="#f9e7be" d="M901 1465c-13-3-3-15 9-15zm48-73-6-4c-2-3-2-1-1-4 4-3 12-2 16-1-2 8-5 3-9 9"/>
  <path fill="#f9f1dd" d="M940 1417c-4-3-6-3-6-8 4-6 8-4 13-2q-2 6-7 10"/>
  <path fill="#dfc27f" d="m854 1339 1 3c3 1 12-4 17-5q-4 7-11 12h-2l-7-8-3-1zm37 72c6 3 7 4 11 8q-1 3-4 4-6-4-9-10z"/>
  <path fill="#ad862e" d="m957 1351 1 1c-3 3-2 3-6 3q0-3 5-4"/>
  <path fill="#fefffe" d="M906 1377q-4-2-6-7c-1-4 0-11 5-11l7 4h1q-6-5-8-11 0-2 4-2l10 9 2 5 1 1 10 13z"/>
  <path fill="#f9f1dd" d="m921 1364 10 13-26-1c5-1 10 1 12-2l-3-3c1-6 3 0 6-8m-42-6c8-2 12 12 11 18h-10l2-8c-5 0-13 0-14-5 3-4 5-3 11-5"/>
  <path fill="#966d0f" d="M843 1393c-4-1-3-1-5-4q-1-3 2-4c5 0 0 0 3 3h2c5-3 3-3 10-3v5l7 4c-3 4-12 5-17 2q0-3-2-3"/>
  <path fill="#ad862e" d="M843 1393c-4-1-3-1-5-4q-1-3 2-4c5 0 0 0 3 3h2c5-3 3-3 10-3q-5 6-12 8"/>
  <path fill="#f9f1dd" d="M877 1412h6c2 5 5 6 7 12q-1 9-10 10c-6-4-1-14-3-22m-52-3q-1 3-4 4h-2c-2-3-2-16 0-19l2 3q7-4 11 3l-2 7z"/>
  <path fill="#f9e7be" d="M825 1409q-1 3-4 4h-2c-2-3-2-16 0-19l2 3z"/>
  <path fill="#966d0f" d="m876 1436 2 3q3-3 6-3l1 2-8 13-3 1c-4-4 1-5-2-8h-4c-2-3-1-1-1-5 4-3 4-1 9-3"/>
  <path fill="#f9e7be" d="m961 1366 1-1 1 1q1 9-8 13c-1-5-3-4-4-9z"/>
  <path fill="#f9f1dd" d="M921 1354c-6-2-10-10-12-16v-1c5 2 14 12 13 17zm18 12q12 1 11 13h-4q-6-6-7-13"/>
  <path fill="#f9e7be" d="m924 1397 3 1c0 3-5 10-8 13l-2 1c-5-5 4-13 7-15"/>
  <path fill="#a17714" d="M922 1354c3 4 10 9 10 11h-10l-1-1-2-5 2-5z"/>
  <path fill="#f9e7be" d="m896 1352 3 1 2 2q0 6-4 12h-3l-1-2q0-6 3-13m9 30q6 0 11 3 1 4-1 8l-3-1q-6-3-7-10"/>
  <path fill="#c39a3c" d="M877 1412h-1q-4-6-3-11l5 1q1 5 5 8v2z"/>
  <path fill="#f9e7be" d="M916 1393q3-1 4 1-1 4-5 8l-3-4c1-4 0-2 4-5"/>
  <path fill="#f9f1dd" d="M849 1348h3a3 3 0 1 1-3 0"/>
  <path fill="#946700" d="M835 1447q3 3 8 4c3-6-4-12 5-28q2 2 1 6v1c-6 8 3 17 2 21q-3 1-3 6c10 9 26 12 31 23 3 5 3 4 8 6l-10 11c-5 15-20 30-30 42q-2-6-8-4l-20 18c-16 8-11 15-24 21-4-1-2 2-7 2 1-4 1-3 4-7l3-3 2-1q3-3 3-6l-5-2q2-3 7-3l1-1-5-1c-2-7 2 0-1-8h17c5 1 20-8 23-13q1-5-2-8 0-3 3-3h4v-1l-4-2 1-2c8-11 1-16-9-22l-2-5-1-2h-5l1-2-2-6-3-1v-5l-4-3 2-4-1-2 2-4-2-1-3 1-4-2v-1l2 1-2-1q1 4-2 7l-1-4h-2c-6-5 0-8-3-14l-3-4 1-2q5-3 7-9l1-4c5 4 12 12 17 14q6 1 12 7"/>
  <path fill="#dfc27f" d="M877 1497c-5 15-20 30-30 42q-2-6-8-4c6-9 29-30 38-38"/>
  <path fill="#ab7e15" d="M832 1488c4 2 4 2 8 1 3 4 2 4 6 5l4-1 7 7 1 5-1 1-8-2c-4 3-1 6-10 11 8-11 1-16-9-22zm-16-23h2l1-5h1l2 1 2 6h8l2 3c0 5 0 4-2 7q-6-3-11 1l-3-1v-5l-4-3z"/>
  <path fill="#ab7e15" d="M823 1484c6 0 9-6 16-4l1 3v6c-4 1-4 1-8-1l-2 5-2-5-1-2h-5z"/>
  <path fill="#a17714" d="M840 1483v6c-4 1-4 1-8-1q2-5 8-5"/>
  <path fill="#7d5800" d="m832 1467 1-3 1-1 5 4-1 2-4 1z"/>
  <path fill="#c39a3c" d="m850 1493 1-2 2-1q5 4 4 10z"/>
  <path fill="#ab7e15" d="m807 1437 3 2c2 4 1 4 1 9l-3-2z"/>
  <path fill="#966d0f" d="m535 1330 5-2c5 14 5 9 16 16 3 2 0 4 4 6 5 0 5-1 8-4 6 1 1 5 14 4l1-1-1-2h5c0 5-1 3 1 6l7 4c-1 15 9 5 11 16l3 2h3c3 8 1 6 7 10l5-1 2 3c0 9 11 10 14 16l-2 1q-8-1-15-6l-1-4-3-1-5-5-1-1h-3c-2-4-8-13-12-15h-1q-4 2-7 0l1-8q-4-5-12-8h-4v5h-7q0 4 3 7 4 1 6 4-2 5 0 8l2 1 4-11c4 9-5 18 4 27 5 5 4 5 11 6 2 7-4 9 9 16 4 3 11 4 13 8l-1 8c5 11 10 18 11 30-3 3-2 1-3 5 5 5 2 0 6 5l-2 2c3 11 11 8 12 20 0 5 5 15 5 20 2 7 2 19 4 25 0 7 1 6 4 12l7 5 3 12 2 1q0 6 4 10c10 3 9 12 14 15l9 1v5l-6 2 5 11-25-31c-6-7-21-36-23-45-4-19-3-40-18-56-8-16 0-29-15-49-6-10-16-15-23-24q-15-23-28-48c-8-12-22-20-27-33"/>
  <path fill="#946700" d="m652 1315 2-1c5 3 10 9 14 8l22 15c16 13 22 21 41 28l6-3-1 3 2 3c1 5 5 6 7 11l-1 3-4 1v3c-7-2-10-8-20 1l-2 2-2-4h-2q-2 3-6 4c-9-7-12 1-19-3-2-3-2-21-2-26-4-4-8 4-14-6l2-10 1-2-1-2-3 1-2-4-1-1c-2 3 1 5-1 10q-3 1-4-2 0-6-4-9l-5 2-1-4-6-5 8-5v-2q-5-2-15-2l1-3c6 0 5 1 10-1"/>
  <path fill="#a17714" d="m694 1367 2 1-3 16-3-3c-1-6 0-8 4-14"/>
  <path fill="#946700" d="M736 1596v-2c3-1 10-1 13 1l2 6v1c-1 1-11 8-8 8-9 0-10 8-15 15l-11-4q-2-7 0-10l4-1-6-13 3-2 9 2h1z"/>
  <path fill="#a17714" d="m715 1597 3-2 9 2h1l8-1-4 4-5-1-5 3 1 1 9 3v2l-1 1-6-1-4 2z"/>
  <path fill="#966d0f" d="m630 1465 9-2-1 5q2 3 7 2c4 2 14 13 17 16q-1 5 2 9l3-2c3 4 0 7 5 13l-1 3c2 3 2 2 2 6h-1l-8-3-2-4-3-8-7-4-1-5c1-8 1-9-6-13-4-4-7-2-12-3-4-5-1 0-6-5 1-4 0-2 3-5"/>
  <path fill="#946700" d="M586 1276c-5-4-9-2-12-6v-1l3-1 7 1 1-2-1 1v-2c-10-5-9 0-13 3q-2-3 0-9h-4c-3-3-3-2-3-6 2-7 8-5 14-2l26 23v2h-4q-3 0-5 2h-1l-4 2q-3-1-4-5"/>
  <path fill="#a17714" d="M585 1306c4 0 12-2 15-1l4 5c6 0 3-3 7-2q3 5 1 10c-2-2 0-3-2-3l-8 1-6 7c-5-1 0-4-5-1-5 9 1 4-7 11h-1c-3-7-4-9-4-16l-3-3h-2l1-1 5-1q4-2 4-6"/>
  <path fill="#966d0f" d="m772 1404 8 2h1c5 2 5 8 7 9 6 2 14 9 18 11l-1 4-15-6-6 1-1-3 1-1q-6-1-9-6v-1l-2 4c-8-1-3-4-14-2l1-6 3-1h5q1-4 4-5"/>
  <path fill="#a17714" d="m786 1572 6-3c-3 4-3 3-4 7 5 0 3-3 7-2l-6 8-10 6-6 7-6 6q-6 3-13 1l6-1 1-2q-2-5-7-9l10-1c7 0 8 0 11-7v-4l-1-6c5 0 4 1 8-1z"/>
  <path fill="#ad862e" d="m782 1571 4 1v5l-1 1q-5-2-10 0l-1-6c5 0 4 1 8-1"/>
  <path fill="#966d0f" d="M604 1275c9 8 62 44 64 47-4 1-9-5-14-8l-2 1q-3-5-10-5c-6-3-6-6-11-6l-3-1v-3q-6-2-10-8l-13-9q-5-1-5-6h4zm120 313q5 2 9 1c3-4 2-4 5-4 4 6 10 4 16 5q5 4 7 9l-1 2-6 1h-3v-1l-2-6c-3-2-10-2-13-1v2l-8 1h-1l-9-2-3 2-3-5 1-4 6 1zm21-209 1 1 3 14c8 5 10 7 19 8l4 1v1q-4 1-4 5h-5v-1q-2-3-7-4l-6-1-3-1-4-1q-3 4-6 4l-1-1v-7q1-2 7-2 0-5-3-9v-3l4-1z"/>
  <path fill="#ad862e" d="M652 1542c7-5 2-7 9-6l3 7q3 2 8 0c3-3 0-5 2-8l2 1v6q0 3 4 4c-5 1-5 0-8 3l-1 4-2 1-2-2-4 7-7-5c-3-6-4-5-4-12"/>
  <path fill="#d4a853" d="M656 1554c1-6 7-4 11-2l-4 7z"/>
  <path fill="#ab7e15" d="m628 1303 3 1c5 0 5 3 11 6q6 0 10 5c-5 2-4 1-10 1l-1 3c-4-1-10 5-18 2-2-3-1-2 0-6h3l1 1z"/>
  <path fill="#ad862e" d="M631 1304c5 0 5 3 11 6q-2 5-7 7-3-6-4-13"/>
  <path fill="#ab7e15" d="m784 1425 6-1 15 6q-2 6-7 9l-1 2 3 4q0 3-5 5c-5-11-9-6-4-19l1-1c-3-4-3 0-8-5"/>
  <path fill="#ad862e" d="M594 1279q2-2 5-2 0 5 5 6l13 9c-6 4-9-1-14-1-8 1-7 7-13-3q0-5 3-9"/>
  <path fill="#a17714" d="M594 1279q2-2 5-2 0 5 5 6-3 6-9 5c-3-5 0-5-2-9"/>
  <path fill="#ad862e" d="m713 1588-2-2c-1-7 4-6 5-11l-1-5 6-1 3 8c6 6 1 4 0 11l-1-1-4 2z"/>
  <path fill="#a17714" d="M724 1577c6 6 1 4 0 11l-1-1-4 2c0-7-1-8 5-12"/>
  <path fill="#ad862e" d="m662 1508 2 4q-4 6 3 11v2l-3 1-2-2c-4 0-3 3-8 4q-2-6 0-13z"/>
  <path fill="#7d5800" d="M510 1248v-3l-2-5q3-3 4-7l5 5 3-1q2 6 1 12h-2q-3 3-7 1z"/>
  <path fill="#c39a3c" d="m512 1250 2-3c3 0 2 0 5 2q-3 3-7 1"/>
  <path fill="#a17714" d="M800 1445c3 6-3 9 3 14v5q-6 6-12 1l5-7q-1-3-6-5l5-3q5-2 5-5"/>
  <path fill="#966d0f" d="M720 1387c10-9 13-3 20-1q-1 4-4 6-9 1-16-5"/>
  <path fill="#ad862e" d="m750 1403 6 1q5 1 7 4v1l-3 1-1 6q-2-3-6-3l-6 6c0-7 3-10 0-14z"/>
  <path fill="#dfc27f" d="M756 1404q5 1 7 4v1l-3 1h-4z"/>
  <path fill="#966d0f" d="M585 1333c7 3 5-4 10 5l-1 3h2v-1h-5c-2 5-1 4-4 7h-5l-2-2c3-3 2-1 3-6l1-6z"/>
  <path fill="#ad862e" d="m743 1401 4 1c-12 4-8 13-9 23l-2 1-6-8c1-6 6-9 6-14l1 1q3 0 6-4m-134-26 5-9h1c5 4 3 13 4 19-6-4-4-2-7-10zm188 169h-1l-1-1 2-2-1-5 1-1 16 6 1 3z"/>
  <path fill="#d4a853" d="m654 1333 1 4-2 2 2 5-2 1-4-2-5 3c-7-9 4-12 10-13"/>
  <path fill="#ad862e" d="m614 1388 5 5c-3 6 4 10 0 21l-2-1q-1-4-6-3l2-2q5-9 1-20m204 86v3l3 1 2 6-1 2h5l1 2q-8 1-12-2-5-8 2-12"/>
  <path fill="#f9f1dd" d="m782 1571-1-5q8-6 14 0l-3 3-6 3z"/>
  <path fill="#dfc27f" d="m667 1523 6-3q5 7 0 13c-5 1-3-4-6-8z"/>
  <path fill="#f9e7be" d="m576 1298 10 3c0 3 1 2-1 5q-5 1-9-1z"/>
  <path fill="#ad862e" d="M784 1425c5 5 5 1 8 5l-1 1c-4 1-3 1-7 4q-1 1-3-2-1-3 1-7z"/>
  <path fill="#f9e7be" d="M754 1590v-5l5-3c4 0 2 0 5 2v5z"/>
  <path fill="#ad862e" d="m747 1419-1-1-1-2q-4-8 3-12c3 4 0 7 0 14"/>
  <path fill="#a17714" d="M586 1276q1 4 4 5l4-2q-3 5-3 9h-5q-2-6 0-12"/>
  <path fill="#ab7e15" d="M673 1354c-2-2-4 0-7-4q4-4 9-6z"/>
  <path fill="#a17714" d="M645 1478c7 4 7 5 6 13l-4-1z"/>
  <path fill="#f9e7be" d="M666 1571q6-2 12 0v1q-2 4-5 3c-4-1-2 0-5-3z"/>
  <path fill="#dfc27f" d="M580 1345q-4-1-4-4c3-3 2-2 7-2-1 5 0 3-3 6"/>
  <path fill="#7d5800" d="M512 1233q4-1 7 1l1 3-3 1z"/>
  <path fill="#966d0f" d="m696 1536-5-1-1-2 2-1c4-2 3-2 6-1l2 2h4c4 4 2 4 8 7 7-4-1-2 6-6q5 4 4 10l4 1 7 10c4 5 16 21 16 27-3 2-1 1-5 1l-1-1c-5-8-3-10-9-17l-13-15h-4l-1-1-1 3-3-4c-5 0-3 3-8 4q-4-6-1-12-5 0-7-4"/>
  <path fill="#ad862e" d="m703 1540 13 9-1 3-3-4c-5 0-3 3-8 4q-4-6-1-12m9 0c7-4-1-2 6-6q5 4 4 10z"/>
  <path fill="#7d5800" d="m696 1536-5-1-1-2 2-1c4-2 3-2 6-1-1 4 0 3-2 5"/>
  <path fill="#ab7e15" d="M759 1520c11 1 21-3 25-2l1 4 2-1v-2l3-1v9l-1 2h-3l1 6h-1v-1l-1-1v-1c-2 4-1 3-5 5q-3 0-4-4h-1l-3 5q-4-2-6-6l-5-2 4-6c-2-4-1-2-6-4"/>
  <path fill="#a17714" d="M765 1524c7 2 8 1 10 9l-3 5q-4-2-6-6l-5-2z"/>
  <path fill="#dfc27f" d="M776 1533v-3l4-3q3-1 4 1l1 4c-2 4-1 3-5 5q-3 0-4-4"/>
  <path fill="#a17714" d="M674 1444q-6-2-10-7l2-4c6-1 2 0 6-4 8 2 4 9 14 10l-1 5c8 10 9 13 20 16q0 4-5 9l-18-21c-4-4-4-3-8-4m-123-157c-6-2-1 2-6 0-3-5-1-12-5-15l-4 1-2-2c4-9 8-7 17-7 4 3-1 7 0 14l4 4v3z"/>
  <path fill="#ad862e" d="m798 1521 3-1c4 2 14 2 17 3h3l1 1c2 5 5 6 6 12l-1 2c-4 3-11-2-15-5-4-2-4-4-8-7-5-2-3-1-6-5"/>
  <path fill="#ad862e" d="M818 1523h3l1 1c2 5 5 6 6 12l-1 2c-4 3-11-2-15-5l5-2c2-4 1-3 1-8"/>
  <path fill="#7d5800" d="m739 1502 1 1q5 3 5 7c5 4 9 0 14 6l-1 3 1 1c5 2 4 0 6 4l-4 6-9-6c-3-5-15-11-16-17 1-4 0-3 3-5"/>
  <path fill="#ad862e" d="M811 1495c12 4 12 19 25 21l-5 5 1 3c-3-1-10-6-11-8-5-5-5-12-10-18z"/>
  <path fill="#ab7e15" d="m626 1355 3 1q2 11 8 17-6 6-14 5l2-12-1-11z"/>
  <path fill="#ad862e" d="M637 1373q-6 6-14 5l2-12c8 4-1 10 12 7m131 48 8 1q3 12-1 23l-5-1c-2-8 0-15-2-23m32 78c-5 2-16 2-15-6q7-1 14 1c5 2 2 2 7-1l5 2v3c-6 1-1 3-11 1"/>
  <path fill="#b89951" d="M800 1499c-5 2-16 2-15-6q7-1 14 1c-4 1-3 0-5 3l2 2z"/>
  <path fill="#a17714" d="m624 1342-3-1-1-1 2-6-2-1v-1q8-4 15 1c-1 4-2 3-5 6q-3-1-4 1z"/>
  <path fill="#dfc27f" d="M797 1489q-5-5-2-11c3-2 2-2 6-1l5 10-1 2z"/>
  <path fill="#d4a853" d="m801 1477 5 10-1 2h-8c3-5 3-6 4-12"/>
  <path fill="#ad862e" d="M701 1570h4c2 5-4 10-5 16q-4 0-7-3z"/>
  <path fill="#f9e7be" d="M672 1416c5 0 8-2 11 3q1 3-2 4h-2q-6 3-12-1v-2q2-4 5-4m2 28c4 1 4 0 8 4-1 6 0 6-3 10l-5 1-2-4 5-4-3-2v1z"/>
  <path fill="#ad862e" d="M708 1485q2 2 2 5l-2 1 1-1-9 5-2 1c-4 0-2 0-5-2l1-2z"/>
  <path fill="#966d0f" d="M720 1486q10 5 8 17-7-5-9-14z"/>
  <path fill="#b89951" d="m551 1287 3-2 2 7-2 14h-1c-5-6-3-11-3-19"/>
  <path fill="#f9e7be" d="M748 1548q4-1 8 1 2 4 0 8c-5 0-4 1-7-2z"/>
  <path fill="#e4ce9d" d="m566 1295 7 3q-1 9-10 5v-5z"/>
  <path fill="#d4a853" d="M713 1504v-11l1-1c5 7 2 10 4 17l-1 2q-3-2-4-7"/>
  <path fill="#f9e7be" d="M714 1423c7 4 2 10-1 14h-1c-5-2-1-10 2-14"/>
  <path fill="#ad862e" d="m624 1342 2-2q1-2 4-1c-1 8 1 9-4 16h-2l1-11z"/>
  <path fill="#b89951" d="M717 1407h2q1 8-5 11l-3-1-3 1-1-2z"/>
  <path fill="#f9e7be" d="M677 1376c4 0 3-1 6 1l-5 8-6-5 1-2z"/>
  <path fill="#dfc27f" d="M690 1522h10c2 2 2 1 2 6l-9-1c-3-2-2-1-3-5"/>
  <path fill="#c39a3c" d="m700 1436 6 1q3 1 2 4c-2 3-1 2-5 4l-1 3q-2-4-2-12"/>
  <path fill="#f9e7be" d="m618 1318 3 2q2 7-3 10c-4-4-3-2-4-7 1-3 1-2 4-5"/>
  <path fill="#b89951" d="m790 1518 8 3c3 4 1 3 6 5l-14 1z"/>
  <path fill="#e4ce9d" d="m792 1504 7 1v2l-2 4-5 2q-2-4 0-9"/>
  <path fill="#dfc27f" d="m783 1452 2 2q2 5-1 11-7-5-1-13m-61 0c7 2 4 0 9 5v1q-3 3-7 2l-1-1-1-5z"/>
  <path fill="#a17714" d="M702 1554q3 0 4 3c0 4 0 4-3 8l-4-3q-1-4 3-8"/>
  <path fill="#f9e7be" d="m741 1526 6 1v8l-5-1q-2-2-1-8m67-12 7 1c2 3 1 2 0 5q-3 2-6 1-2-1-1-7m-69-12c1-4 0-3 3-5 4 0 3 0 6 2v2q-4 3-8 2z"/>
  <path fill="#dfc27f" d="m632 1349 6 1q0 3-3 7h-2l-2-1z"/>
  <path fill="#ad862e" d="M730 1472h-2l-9-2 10-4 4 2-1 2z"/>
  <path fill="#e4ce9d" d="M732 1470c4 1 3 0 5 3v2c-3 3-1 2-5 3-2-3-2-2-2-6z"/>
  <path fill="#dfc27f" d="M804 1467a4 4 0 1 1 5 6 4 4 0 0 1-5-6"/>
  <path fill="#ad862e" d="m746 1448 7 2-3 5-2 1-1-1zm-29-41v-4c3-3 1-2 5-3l2 2q0 4-5 5z"/>
  <path fill="#d4a853" d="m729 1466 5-6 2 1q1 3-1 6l-2 1z"/>
  <path fill="#dfc27f" d="m691 1471 4 2q2 2 1 6h-3q-2-3-2-8"/>
  <path fill="#ad862e" d="M563 1298q-3-3-1-7l3-1 1 2v3z"/>
  <path fill="#fefffe" d="m341 1358 3-2 20-36 25-41 11-15q11-13 23-24l13-22q8-10 21-10c8-1 21-3 27 3 6 5 6 18 6 25l5 10 9-6 2 4-3 1 5 4 2-1 2 2q4 2 7-1h2q6 1 5 7l-1 1q3 5 2 9c-2 4 0 3-4 5q-3-1-4 1-2 5-1 10 3 1 6-1 3 0 3 2c-5 4-6 1-9 5 1 7 14 9 17 14v1l-4 1-1 1 2 3-1 1-2 1q3 6 10 6l3-7 3 3c-3 5 1 11 4 16l-1 1-8-1-5 2c5 13 19 21 27 33q13 25 28 48c7 9 17 14 23 24 15 20 7 33 15 49 15 16 14 37 18 56 2 9 17 38 23 45l25 31c9 16 20 36 32 51l24 25 1 2c-4 1-49-18-55-21l-6-2-29-14-5-2c-13-6-45-22-55-30l-5-2q-15-11-31-20l-26-18-2-2a661 661 0 0 1-170-179l-1-2c-8-11-19-30-25-42z"/>
  <path fill="url(#d)" d="m490 1236 5 10 9-6 2 4-3 1 5 4 2-1 2 2q4 2 7-1h2q6 1 5 7l-1 1q3 5 2 9c-2 4 0 3-4 5q-3-1-4 1-2 5-1 10 3 1 6-1 3 0 3 2c-5 4-6 1-9 5 1 7 14 9 17 14v1l-4 1-1 1 2 3-1 1-2 1q3 6 10 6l3-7 3 3c-3 5 1 11 4 16l-1 1-8-1-5 2-22-11-4-2c-6-10-7-28-10-41l-24 22c-11 8-65 48-75 43v-1l1-4 38-19c25-16 38-26 57-48-4-13-5-19-6-33"/>
  <path fill="#ab7e15" d="M516 1257q4 2 9 0 3 5 2 9c-2 4 0 3-4 5q-3-1-4 1l-1-3-4 1c-3-4 1-2-1-8zm-8-8q-2 3-6 5c-4 1-3 1-6-1-1-4-1-2 1-5 3-3 2-3 6-3z"/>
  <path fill="#c39a3c" d="M513 1262q-3 3-8 2l-1-2q5-5 12-5z"/>
  <path fill="#775300" d="M595 1593c-4-33-19-63-27-95-4-20-44-110-35-124h2q4 3 3 8 3 21 9 41 10 32 24 64l12 46q11 25 16 52 1 5-2 8z"/>
  <path fill="#969287" d="M656 1655c3-9-36-83-40-100q-10-41-23-83c-11-31-33-66-42-95q11 17 18 36 21 40 35 84c5 18 9 42 15 59l21 48c7 17 18 35 21 53zm34 16q1-3-1-4-7-12-12-25c-12-21-32-53-36-77l25 53c3 7 11 17 13 24l17 31z"/>
  <path fill="#966d0f" d="M599 1585c2 15 2 25 2 40l-5-2q1-15-1-30h2q2-3 2-8"/>
  <path fill="#7e7664" d="M537 1583v-1c-1-11-8-60-6-67 3 8 8 60 8 70z"/>
  <path fill="#969287" d="m509 1317 4 2c-2 6-1 36-4 43v2-3l-1 1c-1-15 2-29 1-44z"/>
  <path fill="#7e7664" d="M366 1402q5-18 14-31l1-1c-4 11-7 14-11 27l14 10h-1q-6-4-13-5l-3 2z"/>
  <path fill="#a1916d" d="M485 1319q2 0 3 2v113c0 12 3 78 1 85l-4-2q2-8 1-16c-2-51 0-102-2-153zm-29 16 2 2c1 14-1 44-1 59-1 11-1 47-3 56h-1c-2-2 2-106 3-117"/>
  <path fill="#7e7664" d="m443 1337 1 2c-5 28-18 75-25 100h-1c-1-3 22-93 25-102"/>
  <path fill="#969287" d="M614 1561c9 6 17 67 16 79-2-2-3-13-3-16-1-23-8-42-13-63"/>
  <path fill="#878276" d="M511 1416c4 3 5 29 5 35h-1c-3-6-4-29-4-35"/>
  <path fill="#fefffe" d="m1670 1024 3 3 5 2 10 14 1 1-1 5 3 2 3 5-2 11c-2 3-1 4-5 6l-12 20q-1 4 1 7h2l6-1q-1 6 1 9l3 1c1 1 7 8 7 10l-6-1v6l1 6c3 16 11 22 7 40 5 10 8 13 10 25 5 5 7 5 5 12v2c5 0 3-5 7-1l2 1-2 4 3 2c2 2 2 18 4 22l4 2-4 10q2 4 1 7v1l1 3c-15 8-5 13-19 16l-6 6 5 2c-1 11-14 25-20 40q-5 10-12 18c-4 5-14 9-18 15-9 16-13 30-29 43-2 2-5 18-10 21l-3 5-13-10-22-19-19-16-27-27-21-12c-22-16-32-35-55-48q0 7-7 8c-4-5-16-10-20-16l-6-6q-1-7-7-14l-5-4-2-5c-6-6-33-6-40-18l-7-6q0-2-3-2c-9-8-16-10-27-15l-3-1-3 5-1-2-3 6-4-8-1 1-1-1-1 2c-3-11-5-13-13-20l-2-3q-5-7-11-10l-3 1v-7l2-2 2-6 6-1c9-5 15 4 24-1 20 4 18 12 32 23 21 17 42 21 60 44l44-34 44-38c45-34 85-67 121-111 7-9 35-23 46-29"/>
  <path fill="#dfc27f" d="m1670 1024 3 3 5 2 10 14 1 1-1 5 3 2 3 5-2 11c-2 3-1 4-5 6l-12 20c-3 3-2 4-7 4-4 0-2-1-5 1l5-20-9-2-8 17h-1c0-7 5-9 4-15-2-2-1-2-5-2q-5 2-3 6c-1 9-6 16-7 25l-1 1-9-6c-1 4-4 13-3 16l1 2q-4 9-13 15c-10 5-16-6-17 11l-1 1-8-3-4 1c-3 5-4 15-7 19l1-10q-7-3-14-1l1 7c-3 4-5 0-7 9-1 7-8 21-8 28l-4 2c0-6 8-17 10-28l-2-1c-6 4-9 1-15 4v5c-7 0-18-1-24 1q-1-2 1-6l-3-1-7 5-1-1v-6q-6 3-9 8v2l1 3q-5 3-8 1-4 2-6 6c-3 7-9 4-14 9l-1 5-2 2-1 4h-4c-7 2-9 3-14 9v1c-9 2-23 14-30 20l2 15v3l-1 1-2-1v-2h-4c-6-6-33-6-40-18l-7-6q0-2-3-2c-9-8-16-10-27-15l-3-1-3 5-1-2-3 6-4-8-1 1-1-1-1 2c-3-11-5-13-13-20l-2-3q-5-7-11-10l-3 1v-7l2-2 2-6 6-1c9-5 15 4 24-1 20 4 18 12 32 23 21 17 42 21 60 44l44-34 44-38c45-34 85-67 121-111 7-9 35-23 46-29"/>
  <path fill="#dfc27f" d="m1293 1171 6-1c11 4 20 3 32 8 10 4 19 20 27 25l33 19q6 1 8 5c10 9 11 11 14 25l3 5h-4c-6-6-33-6-40-18l-7-6q0-2-3-2c-9-8-16-10-27-15l-3-1-3 5-1-2-3 6-4-8-1 1-1-1-1 2c-3-11-5-13-13-20l-2-3q-5-7-11-10l-3 1v-7l2-2z"/>
  <path fill="#7d5800" d="m1289 1179 2-2 2-6c15 10 6 13 17 20l3 2v3l3 1c6 11 4 13 16 18l-3 5-1-2-3 6-4-8-1 1-1-1-1 2c-3-11-5-13-13-20l-2-3q-5-7-11-10l-3 1z"/>
  <path fill="#c4a152" d="M1391 1222q6 1 8 5l-8 8h-9l5-1z"/>
  <path fill="#e4ce9d" d="M1313 1193c-4-7-4-9-3-17l1-1q6 10 5 22l-3-1z"/>
  <path fill="#f9e7be" d="M1387 1240h7l1 1-1 3-5 1c-3-2-2-1-2-5"/>
  <path fill="#966d0f" d="m1670 1024 3 3q-4 6 1 10l3 2c-8 7-10-3-16-4l-10 4-15 13c-5 0-21 18-22 23-3 6-6 5-10 9v2h3q-1 4-5 4t-7 4l-14 16-9 9c-7 2-9 5-14 10l-15 12-20 15 2 2q-6 1-8 4l4 2-1 1-1 1c-6 1-6 1-11 4l-1-1-2 2q-6 3-9 8v2l1 3q-5 3-8 1-4 2-6 6c-3 7-9 4-14 9l-1 5-2 2-1 4h-4c-7 2-9 3-14 9v1c-9 2-23 14-30 20l2 15v3l-1 1-2-1v-2l-3-5c-3-14-4-16-14-25q-2-4-8-5l-33-19c-8-5-17-21-27-25-12-5-21-4-32-8 9-5 15 4 24-1 20 4 18 12 32 23 21 17 42 21 60 44l44-34 44-38c45-34 85-67 121-111 7-9 35-23 46-29"/>
  <path fill="#fefffe" d="M1668 1097c-2-7 2-26 7-31q9-2 12 7l-12 20c-3 3-2 4-7 4"/>
  <path fill="#f9e7be" d="m1516 1174 2-3c6 0 1 3 6 4l2-3 3-1c4 3-1 1 2 5l3-3q2-1 5 1v5c-7 0-18-1-24 1q-1-2 1-6"/>
  <path fill="url(#e)" d="m1659 1076 2-3 4 1q-4-3-5-6 5 0 5-5h2c4 3 3 11 1 15z"/>
  <path fill="#f9f1dd" d="m1554 1170-10-1q1-8 9-9 4 1 4 4l-1 7z"/>
  <path fill="#ad862e" d="M1543 1141c9 4 10-3 16-1v1q-4 0-3 5c-3 3-2 3-5 3l-2-1q-7-5-15-1z"/>
  <path fill="#fefffe" d="M1584 1145c2-5 4-13 10-11q4 4 2 9c-5 2-3-2-8 1z"/>
  <path fill="#ad862e" d="m1651 1039 3 1c1 9-11 12-18 12z"/>
  <path fill="#f9f1dd" d="m1620 1093 7 1c2 4-3 19-4 25l-4-1c-3-7 2-17 1-25"/>
  <path fill="#fefffe" d="M1632 1085q6-1 9 2c1 4-3 10-4 16l-1 1c-8-1-7-14-4-19"/>
  <path fill="#f9e7be" d="m1583 1137 1 2q-1 7-5 10c-4 4-12 3-15-2q6 0 11-3l-3 1 3-2-2 1c-4-5-2 1-4-3zm22-30 7 1-3 8q5 2 4 8l-4 2v-6h-1q-4 4-7 2z"/>
  <path fill="#f9e7be" d="m1599 1106 3 2q1 10-9 13-3-3-2-6 3-5 8-9"/>
  <path fill="#f9f1dd" d="M1642 1076h1v5c-3 3-2 2-8 3-3-2-1-1-3-4l1-2q5-3 9-2"/>
  <path fill="#f9e7be" d="M1582 1113c4 0 3-1 6 1l-2 9q-3 1-7-2z"/>
  <path fill="#e4ce9d" d="M1661 1047c6 3 3 9-1 13l-2-3q0-5 3-10"/>
  <path fill="#7e7151" d="m1621 1074 3 3-6 3-2-1z"/>
  <path fill="#775300" d="m1678 1100 6-1q-1 6 1 9l3 1c1 1 7 8 7 10l-6-1v6l1 6c-8 1-14 9-20 15-3 3-14 4-15 5-13 14-63 92-82 91l-1-1 1-5 4-2 6-4 11-11q7-5 11-12l-1-3q3-20 2-41l11-10 1-1 15-11h2l3-5 9-8 9-8 6-10c5-8 8-5 16-8z"/>
  <path fill="#e4ce9d" d="m1678 1100 6-1q-1 6 1 9l3 1c1 1 7 8 7 10l-6-1v6l-9 4c-8 5-12 16-22 15l-4 1-2-4q-1-5-5-11v-2l9-8 6-10c5-8 8-5 16-8z"/>
  <path fill="#f9f1dd" d="m1678 1100 6-1q-1 6 1 9l3 1c1 1 7 8 7 10l-6-1v6l-9 4q1-6-2-10l-2-3q-1-6-5-7l-2 2h-1l1-4c-4 1-3 2-6 5l-1-2c5-8 8-5 16-8z"/>
  <path fill="#7d5800" d="m1678 1100 6-1q-1 6 1 9l3 1c1 1 7 8 7 10l-6-1v2c-2-4-9-9-10-14l-1-5z"/>
  <path fill="#f9f1dd" d="M1656 1119c2 6 3 20-2 25l-2-4q-1-5-5-11v-2z"/>
  <path fill="#dfc27f" d="m1617 1152 1-1c3 4 3 4 4 9l1 2h2l2-2 2 15-4 5-16 22-4 4-1-3q3-20 2-41z"/>
  <path fill="#f9f1dd" d="M1617 1152c2 4 4 17 1 21-6-1-6 1-9 6v23l-4 4-1-3q3-20 2-41zm10 8 2 15-4 5c-3-5 0-10-2-18h2z"/>
  <path fill="#e4ce9d" d="M1638 1135q-2 6 0 13l1 1 9-1-19 27-2-15-2 2h-2l-1-2c-1-5-1-5-4-9l15-11h2z"/>
  <path fill="#f9f1dd" d="M1633 1140c3 9 2 12-5 18l-1 2-2 2h-2l-1-2c-1-5-1-5-4-9z"/>
  <path fill="#f9e7be" d="M1647 1127v2q4 6 5 11l-3 1-10 8-1-1q-2-6 0-13z"/>
  <path fill="#a1916d" d="m1649 1141-4-7c0-4 0-2 2-5q4 6 5 11z"/>
  <path fill="#dfc27f" d="m1497 1184 3-1 1 1c0 5-1 4-5 6v1h5l5-7h1c1 6-3 3-1 7l2 1-1 1c-1 8-10 29-15 35-3-4-2-4-6-5-4 1-2 0-4 3 1 4 8 9 11 12l-16-10h-2c-6 6-8 18-11 19v-8l-2 1c-6 8-4 13-10 13q-4 0-7 2v5l7-1 3 1 1 2c-4-2-15-1-19-1v1h-1q-5 3-9 2l-2 4-1-4-5-8-2-15c7-6 21-18 30-20v-1c5-6 7-7 14-9h4l1-4 2-2 1-5c5-5 11-2 14-9q2-4 6-6 3 2 8-1"/>
  <path fill="#e4ce9d" d="m1497 1184 3-1 1 1c0 5-1 4-5 6v1h5l5-7h1c1 6-3 3-1 7l2 1-1 1c-4 1-2 0-4 3v5l-2-6-1-1c-3-1-3 1-9 1l2-3v-2c-3-1-2-1-5 1-3 5-6 16-13 18q-5 1-9-2l2-2 1-5c5-5 11-2 14-9q2-4 6-6 3 2 8-1"/>
  <path fill="#f9f1dd" d="M1493 1207h4c1 5 0 12-5 13l-1-7h-1l-5 8q-2 4-8 3l-2-2c-1-2 3-8 4-10l2 1c2-6 5-1 10-6z"/>
  <path fill="#cac0a8" d="m1479 1212 2 1c-3 5-5 6-4 11l-2-2c-1-2 3-8 4-10"/>
  <path fill="#f9f1dd" d="M1475 1222q-7 7-15 3c-2-11 7-6 9-6l2-4q3-4 8-3c-1 2-5 8-4 10"/>
  <path fill="#f9f1dd" d="m1462 1240-2-1h-3c-2-3-1-2-1-5q6-7 15-7-1 8-7 12zm39-45 2 6q-6 2-10 6h-2l-6-1-1-2c4-7 13-4 17-9"/>
  <path fill="#f9e7be" d="m1447 1220 11-2v2q-2 6-8 9l-4-2z"/>
  <path fill="#f9f1dd" d="m1444 1231 7 1q0 3-4 6l-1 2h-1z"/>
  <path fill="#cac0a8" d="M1606 1162q1 20-2 41l1 3q-4 7-11 12l-11 11-6 4-4 2c4-8 14-53 19-58l1 1-3 13q3 2 6 1l2-2v-19l-2-1q6-2 10-8"/>
  <path fill="#e4ce9d" d="m1587 1203 3-8q0 10 3 16l1 7-11 11q3-12 4-26"/>
  <path fill="#f9e7be" d="M1577 1233c0-5 6-26 9-31l1 1q-1 14-4 26z"/>
  <path fill="#966d0f" d="M1675 1093q-1 4 1 7h2v1c-8 3-11 0-16 8l-6 10-9 8-9 8-3 5h-2l-15 11-1 1-11 10q-4 5-10 8c-3 0-1 0-3-2 0-6 29-26 35-31 16-13 24-22 35-39 3-2 1-1 5-1 5 0 4-1 7-4"/>
  <path fill="#7d5800" d="m1419 1256 5 8 1 4q3 5 8 7l3 3c7 5 15 13 23 16q0 7-7 8c-4-5-16-10-20-16l-6-6q-1-7-7-14l-5-4-2-5h4v2l2 1 1-1z"/>
  <path fill="#a1916d" d="M1505 1171v6l1 1 7-5 3 1q-2 5-1 6c6-2 17-1 24-1l7 1c-7 3-7-3-12 7-2 4-4 12-7 14v-1 1c-1-7 7-13 7-19-10-5-14 10-21 12-1-4 2-5-1-7q-3 1-4 5l-2-1c-2-4 2-1 1-7h-1l-5 7h-5v-1c4-2 5-1 5-6l-1-1-3 1-1-3v-2q3-5 9-8"/>
  <path fill="#f9e7be" d="M1505 1171v6l1 1 7-5 3 1q-2 5-1 6l1 2-20-1v-2q3-5 9-8"/>
  <path fill="#969287" d="m1719 1208 2 1-2 4 3 2-2 1h1c-7 1-34 34-41 42l-55 63c-4 5-23 28-28 31 0-3 24-29 27-33l72-82c4-5 22-25 23-29"/>
  <path fill="#a0a4a5" d="M1708 1284c-14 0-28 27-43 30v-1c12-10 27-25 38-31z"/>
  <path fill="#453000" d="m1550 1197 1-1q4-3 7-3l1 2c-3 5-13 14-19 12l-1-1q2-4 7-7z"/>
  <path fill="#f9f1dd" d="m1425 1268 2-4q5 0 9-2h1l-2 8 1 1v-1q1 5 7 5h-10q-5-2-8-7"/>
  <path fill="#ab9f8c" d="M1437 1262c4 0 15-1 19 1-8 5-12-5-20 8v1l-1-1zm-4 13h10l17 1-24 2z"/>
  <path fill="#775300" d="M1647 1235h3v2c-9 13-53 54-66 66q-3 0-3-3c5-8 57-57 66-65m-5 104 2 1 1 2c-3 7-44 50-51 56l-3-1-1-2 16-16z"/>
  <path fill="#453000" d="m1529 1266 2 1c-1 5-41 34-49 39h-2l-1-2c2-6 43-34 50-38"/>
  <path fill="#878276" d="M1598 1251v2l-25 20-50 39-1-1c3-4 69-55 76-60"/>
  <path fill="#969287" d="M1688 1161c-1 5-8 11-12 14l-46 43v-1c0-4 51-50 58-56m-178 69h4l-1 1c-11 6-40 24-49 31h-2v-2z"/>
  <path fill="#ab9f8c" d="M1504 1218q6 1 10 7c-4 2-8-4-10-7"/>
  <path fill="#878276" d="m1557 1326 1 1-9 8h-1q3-5 9-9"/>
  <path fill="#c4a152" d="M1670 1024c9-7 28-24 39-17q8 5 13 13c15 18 40-8 50 21 5 10 8 9 16 15l10 9 17 13 2 1 2-1-5 29-8 40c0 3-5 7-7 8l4 3c-5 17-7 34-14 51-2 4-7 22-7 26q-8-6-15-2l-8-3c0-3 0-1 2-5l-4-4v-1q-3-6-10-8h-1c-10-7-15-3-25-3l-2-1c-4-4-2 1-7 1v-2c2-7 0-7-5-12-2-12-5-15-10-25 4-18-4-24-7-40l-1-6v-6l6 1c0-2-6-9-7-10l-3-1q-2-3-1-9l-6 1h-2q-2-3-1-7l12-20c4-2 3-3 5-6l2-11-3-5-3-2 1-5-1-1-10-14-5-2z"/>
  <path fill="#946700" d="M1670 1024c9-7 28-24 39-17q8 5 13 13c15 18 40-8 50 21l-1 7q-4-2-4-6l-10 6-1-4c-6-1-7-6-16-4-6 4-3 16-7 21-5 2-6 0-11 4l-1 5-4 5c-1 7-1 7-7 10l-1-1h-5l-4 3v2l2 1-2 5-2 1 2 6 2 1q-1 6 2 12l-2 2-2-1q-4 1-5 3c0-2-6-9-7-10l-3-1q-2-3-1-9l-6 1h-2q-2-3-1-7l12-20c4-2 3-3 5-6l2-11-3-5-3-2 1-5-1-1-10-14-5-2z"/>
  <path fill="#a17714" d="m1688 1109 1-6c3-3 2-2 6-3q2 3 5 2l2 1q-1 6 2 12l-2 2-2-1q-4 1-5 3c0-2-6-9-7-10"/>
  <path fill="#c39a3c" d="m1700 1089 2 1-2 5-2 1 2 6q-2 1-5-2c-4 1-3 0-6 3l-1 6-3-1q-2-3-1-9l3-1q4 0 7-3z"/>
  <path fill="#7d5800" d="M1709 1007q8 5 13 13l-4 3-2-1v3l1-1-2 1q0-5-3-9l-1-3h1z"/>
  <path fill="#ab7e15" d="M1712 1016c-9 1-8 4-12 11q-3 1-4-1c-1-7 8-12 15-13z"/>
  <path fill="#a17714" d="m1687 1098 1-2-1-1-6-2v-2c3-3 1-2 5-3l6 3q0 3 2 4-3 3-7 3m17-14v-2q5-6 13-7c-1 7-1 7-7 10l-1-1z"/>
  <path fill="#dfc27f" d="m1756 1044 4-3q-1-3 2-5l5 6-10 6z"/>
  <path fill="#a17714" d="M1689 1044c4-3 2-4 5-6l-1 2 1 1-3 10-3-2zm5 12v7l2 1c4-1 3-1 6 1q-5 3-10 2zm12-6-2-2v-8q0-7 5-9z"/>
  <path fill="#ab7e15" d="M1718 1043q4-1 7 1 1 3-1 7h-2q-4-2-4-8m7-14 2 2q2 4 1 9-5-4-3-11"/>
  <path fill="#966d0f" d="M1695 1119q1-2 5-3l2 1v11l1 1 8 5v8q4 7 3 13c-2 4-3 24 0 27 3-3 2-3 5-4l2 1v6c5 3 1-2 7 2v1q-2 4-5 6 3 1 8-1l2 1 1 3q2 3 5 2c2-4-1-3 1-7l2-1 3 8h1l3-5h2q3 1 3 4l-6 8q7 8 18 9v2h-1q-5-1-8 3-3-6-10-8h-1c-10-7-15-3-25-3l-2-1c-4-4-2 1-7 1v-2c2-7 0-7-5-12-2-12-5-15-10-25 4-18-4-24-7-40l-1-6v-6z"/>
  <path fill="#ab7e15" d="m1721 1070 1-5c5-4 6-2 11-4 4-5 1-17 7-21 9-2 10 3 16 4l1 4-5 5c-2 2-9 8-9 10h5q3 0 3 2-3 1-3 4l7 2c-10 2-18-4-24-2l2 4-4 1c-1 16-12 9-16 22-2 9-6 3-10 5l-1 2-2-1-2-6 2-1 2-5-2-1v-2l4-3h5l1 1c6-3 6-3 7-10z"/>
  <path fill="#966d0f" d="M1704 1084h5l1 1-2 2 2 4q-2 6-9 7l-1-3 2-5-2-1v-2z"/>
  <path fill="#a17714" d="m1798 1065 17 13c-6 3 0 1-5 4-5-1-12-9-15-13z"/>
  <path fill="#966d0f" d="m1795 1069-2-1q-8-4-11-11l1-2 5 1 10 9z"/>
  <path fill="#ad862e" d="m1751 1065 2 2c5-2 2-4 5-4 3 3 4 12 2 16l-6-2q2-3 1-6l-7-2q0-3 3-4"/>
  <path fill="#f9e7be" d="M1752 1053q5-1 10 1l-9 7-5 2h-5c0-2 7-8 9-10"/>
  <path fill="#ad862e" d="M1711 1142c5 0 5 0 9 2q4 6 0 12l-6-1q1-6-3-13"/>
  <path fill="#ab7e15" d="m1748 1206 7-2 2 4 5-1 1 1 1 4 1 3q-11-1-18-9m14 19 3-2h2l1 10-8-3c0-3 0-1 2-5"/>
  <path fill="#dfc27f" d="m1764 1208 6-3 3 1v2l-8 4z"/>
  <path fill="#a17714" d="m1746 1112 3 2q4 2 10 0 4 3 2 8l-1 1h8l1 2c-3 5-4 5-3 11l-1 3c-7 3-20-12-24-18q0-4 5-9"/>
  <path fill="#c39a3c" d="M1760 1123h8l1 2c-3 5-4 5-3 11q-6-2-8-6-1-4 2-7"/>
  <path fill="#946700" d="m1738 1163-1-1c-7-11-4-15 6-20q3-1 4 2 5 0 7 5c-2 3-6 5-4 9q-5 3-10 2z"/>
  <path fill="#ab7e15" d="M1747 1144q5 0 7 5c-2 3-6 5-4 9q-5 3-10 2l3-5q-1-5 2-9z"/>
  <path fill="#a17714" d="M1747 1144q5 0 7 5l-5 2-4-5z"/>
  <path fill="#ad862e" d="m1750 1158 1 1-3 1q-3 1-1 4c6 0 9-4 13-3-3 5 1 8-2 12l-5-4h-2q-3 5-6 5l-2-2q2-3 1-5c-6-1-4 3-9 0v-4h3l2-3z"/>
  <path fill="#a17714" d="m1796 1094 4 1q13 12-2 19h4-5c4-11-2-12-1-20"/>
  <path fill="#ad862e" d="M1732 1086c4 3 11 7 8 12l-2 1q-7-1-10-7c0-4 0-3 4-6"/>
  <path fill="url(#f)" d="m1771 1145 10 4q-5 6-13 1c-3 3-10 3-11-2l2-1 5 1z"/>
  <path fill="#f9e7be" d="M1787 1080h5l2 1q-5 6-13 7h-2q-1-3-4-4l1-1z"/>
  <path fill="#d4a853" d="m1788 1186 4 2v3l-12 6-2-1c-2-5 6-8 10-10"/>
  <path fill="#ad862e" d="m1733 1131 7-3q1 2 5 2l2 5q-9 4-16-2z"/>
  <path fill="#f9e7be" d="M1769 1052q4 0 4 4-2 6-10 6h-3v-2z"/>
  <path fill="#ad862e" d="M1746 1112q0-7 5-8 4 0 7 3v3h-7q-3 1-2 4z"/>
  <path fill="#c4a152" d="M1733 1131q-3 0-4-2l-1-2c3-2 1-2 5-2l7 3z"/>
  <path fill="#e4ce9d" d="M1750 1098h7c3 2 2 1 3 5q-5 1-9-1z"/>
  <path fill="#ad862e" d="m1753 1181 7-1c4 2 3 1 5 5-7-1-9 1-12-4m37-41h3v3a3 3 0 1 1-3-3"/>
  <path fill="#c4a152" d="M1721 1209c10 0 15-4 25 3h1q7 2 10 8v1l4 4c-2 4-2 2-2 5l8 3q8-4 15 2l-6 13-22 53q-1 7-5 12c-6 1-19-8-20 6q3 9-1 16 0 8-4 12l-4 1v1q2 3-1 6c-13 16-8 28-15 36l1 2-1 5c-14 13-18 14-26 33l-1 1q-6 15-17 27-6-5-10-13l-1-1c-5-1-17-9-23-11s-5-7-10-8l3-5c5-3 8-19 10-21 16-13 20-27 29-43 4-6 14-10 18-15q7-8 12-18c6-15 19-29 20-40l-5-2 6-6c14-3 4-8 19-16l-1-3v-1q1-3-1-7l4-10-4-2c-2-4-2-20-4-22l-3-2z"/>
  <path fill="#946700" d="M1721 1209c10 0 15-4 25 3h1q7 2 10 8v1l4 4c-2 4-2 2-2 5l8 3q8-4 15 2l-6 13h-4c-1 5 1 8-4 10-7-1-7-1-10-7l-1-1-6-5-2 1c-5 0-4-1-6 2q0 4-5 6l1 2q-1 4-4 4l-1-2 1-3-8 1q1-3-1-7l4-10-4-2c-2-4-2-20-4-22l-3-2z"/>
  <path fill="#dfc27f" d="M1721 1209c10 0 15-4 25 3l-6 3v3l-3 1 3 11c-5 0-12-1-13 5l3 4-4-2c-2-4-2-20-4-22l-3-2z"/>
  <path fill="#ad862e" d="M1740 1230c-5 2-6 1-6 7h5c2 4-1 10-1 17l1 2q-1 4-4 4l-1-2 1-3-8 1q1-3-1-7l4-10-3-4c1-6 8-5 13-5"/>
  <path fill="#f9f1dd" d="M1726 1249h11q1 4-2 6l-8 1q1-3-1-7"/>
  <path fill="#dfc27f" d="M1746 1212h1q7 2 10 8v1q-10 2-16-3h-1v-3z"/>
  <path fill="#966d0f" d="m1764 1241 1 1c2 7-3 6 3 16-7-1-7-1-10-7l-1-1 4-5z"/>
  <path fill="#7d5800" d="M1761 1245q-4-4 0-9c3 2 2 1 3 5z"/>
  <path fill="#966d0f" d="m1749 1246 2-1 6 5 1 1-3 2-9 12c-3 3-2 3-5 4-2-3 0-2-3-3l1-1-1 1c-3 6 6 13-1 17-7-2-3-5-8-6l-1 1v6l-1 1-4-3-1 1-1 4-1 1-5-5-1 1 1 7-27 41h-2l2-8c6-15 19-29 20-40l-5-2 6-6c14-3 4-8 19-16l-1-3v-1l8-1-1 3 1 2q3 0 4-4l-1-2q5-1 5-6c2-3 1-2 6-2"/>
  <path fill="#a17714" d="m1749 1246 2-1 6 5 1 1-3 2c-3-1-3 1-6-2z"/>
  <path fill="#e4ce9d" d="M1768 1258c5-2 3-5 4-10h4l-22 53-5 3-6-4c1-6 3-5 5-9l-3-1c-4-8 2-5 2-9l-4-5c1-7 4-3 5-9l-2-2 9-12 3-2c3 6 3 6 10 7"/>
  <path fill="#f9e7be" d="m1762 1257 5 2-1 5c-4 0-3 0-6-2 0-3-1-2 2-5"/>
  <path fill="#b89951" d="M1677 1432q-1-2-3-2l-4 3q-9 0-15-8l2-3h1l4 4c5 1 6 0 11-1l1-1q3 1 4 7z"/>
  <path fill="#f9e7be" d="M1719 1344c4-6 0-7 2-13q4 1 7 4 0 8-4 12l-4 1z"/>
  <path fill="#f9e7be" d="m1719 1344 1 4v1q2 3-1 6l-4-1-2-4c-3 1 0 3-4 5-2-3-2-1-2-5q5-4 12-6"/>
  <path fill="#966d0f" d="M1749 1304h1l1 1-1 2q-6 5-12 0v-3l5-4z"/>
  <path fill="#f9e7be" d="m1649 1445-2-8 1-2q7 0 7 7c-3 4-1 2-5 4zm55-47q-5-5-5-11l1-1 3 1-1 5 3 1zm-44-8q5 2 7 6c0 4 1 2-3 7q-4-1-6-5c0-5-1-3 2-8m-27 30 8 3c2 4 1 3 0 7l-5 1zm46-61q3 1 3 4a4 4 0 1 1-3-4"/>
  <path fill="#c4a152" d="M376 1260c3 7 1 19 5 23l-3 3-7 10-2 5c-6 10-11 13-15 26h-3c2 8-1 2 0 8-4 3-9 0-13 2q-3 6-2 13c-5-5-16-26-14-32l4 5 2 1 1-2q-3-3-2-7c2-7 15-27 20-30 3-4 3-7 8-7l18-14z"/>
  <path fill="#e4ce9d" d="M373 1264c1 4 4 15 2 19l-5-2q-7 2-13 0l-2-3z"/>
  <path fill="#f9e7be" d="m354 1327-2-1 1-4q-4-3-5-8l1-1c4 0 3 0 6 3l3-3 1-1v-2l-5-1v-8c3-2 1-2 4-1l3 7h1c2-3-2-5 0-9l7 3c-6 10-11 13-15 26"/>
  <path fill="#f9e7be" d="M347 1285c5-1 4-1 8 1q3 5 2 11v2l-6-3c0-3 0-1 2-4l-1-1q-5-1-5-6m24 11q-1-6 1-10h6zm-12-13 8 3c3 3 2 3 1 8q-5 3-8-1-2-4-1-10"/>
  <path fill="#e4ce9d" d="M1438 1608c0-4 3-13 6-15 5 5 9 1 12 6l-2 3 1 1 9-2c3 4 5 2 9 8q3 6 10 11c-21 8-31 19-49 27l-3 2q-7 4-13 4c2-7 10-11 12-21l4-11z"/>
  <path fill="#dfc27f" d="M1438 1608q9 2 10 10-3 4-7 5-1 4-3 5l-4-7z"/>
  <path fill="#f9e7be" d="M1431 1649q-6-6 1-10h2c2 4 2 3 0 8zm23-27h3l-6 13c-4 0-3 0-5-2 0-3 6-9 8-11"/>
  <path fill="#dfc27f" d="m390 1241 7-8 4 4 5-4c6 0 8 4 12 2l-2 4-8 6c-5 3-11 16-15 17l-2-1-1 7-2 1h-3l-1 1 2 3-5 10c-4-4-2-16-5-23l1-3c4-5 5-6 11-6q-2-6 2-10"/>
  <path fill="#966d0f" d="m390 1241 7-8 4 4 5-4c6 0 8 4 12 2l-2 4-4-1-3 2-2-1v-3c-8 5-2 8-6 14l-2 1v-14h-2l-1 1-2 19h-2c0-4 2-13-2-16"/>
  <path fill="#a17714" d="m388 1251 1 6q-5 2-11 0h-1c4-5 5-6 11-6"/>
  <path fill="#c39a3c" d="m441 1201 18 1c-11 3-17 3-26 11-3 3-8 11-8 15-5 8-4 3-7 7-4 2-6-2-12-2l-5 4-4-4 4-3c8-11 10-10 23-13 7-6 9-11 17-16"/>
  <path fill="#dfc27f" d="M401 1230q6-2 10 0l2 3 2-5q5-2 10 0c-5 8-4 3-7 7-4 2-6-2-12-2l-5 4-4-4z"/>
  <path fill="#f9e7be" d="m338 1337 3 8q0-4 3-7l2 1 1 1c-3 7-8 11-6 18v2l-5-10q-1-7 2-13"/>
  <path fill="#e4ce9d" d="M1564 1553q3-3 9-2l-8 6z"/>
  <path fill="#dfc27f" d="M1579 1538q4 3 3 8l-2-1q-2-3-1-7"/>
  <path fill="#7d5800" d="M1021 614h2c50-2 98 15 135 47 128 115 132 391 4 509-34 31-64 39-108 41-312 30-305-572-33-597"/>
  <path fill="#fefffe" d="M1031 627a669 669 0 0 0 0 115 365 365 0 0 0 48 177c34 92 35 196-30 275h-1v-46a945 945 0 0 0-34-207l-17-34q-13-28-17-59c-11-74 6-160 51-221"/>
  <path fill="#a0a4a5" d="M1212 524c23-40 47-88 69-129l116-214c5-9 46-88 49-89 1 5-19 37-23 44l-42 78-86 162-66 122-15 27zm171 169c68-37 143-73 213-108l129-66c10-5 92-47 97-47-7 5-24 13-33 17l-80 41-325 164z"/>
  <path fill="#969287" d="m1139 496 2-2c28-91 82-265 106-347l26-84q5-20 13-41c-7 30-14 49-22 77l-26 83-63 210-22 72-10 33z"/>
  <path fill="#a0a4a5" d="m690 693-22-11-88-43-217-107c-11-6-77-36-83-42 9 3 31 14 41 19l53 26 233 114 42 21c13 6 28 16 42 20z"/>
  <path fill="#969287" d="M998 482c0-12-3-28-4-40l-7-54q-12-84-22-169l-8-60-10-72c-2-13-5-32-4-45l9 66 23 173 19 146c2 17 6 38 7 55l19-1z"/>
  <path fill="#a0a4a5" d="m1281 569 204-246 65-78c5-6 30-39 35-40q-90 111-183 220l-83 101c-8 10-28 36-37 43z"/>
  <path fill="#969287" d="m849 527-15-27-33-55-79-136c-9-15-89-152-89-154 4 2 54 91 61 102l118 201 28 49 11 19zm220-45 34-290c2-14 10-107 13-111 3 8-21 186-23 211l-15 135-7 56zm344 284 41-11 91-25 173-47 82-23c9-1 18-6 26-7v1c-14 7-47 13-63 18l-232 64-78 21c-5 2-38 9-40 12zM785 571l-33-46-83-114-81-110q-30-38-56-77c8 6 98 131 110 148l102 138c8 10 36 54 43 59z"/>
  <path fill="#a0a4a5" d="m337 663 72 19 174 45c11 3 76 18 83 23l-24-5-79-21-189-49-36-9z"/>
  <path fill="#7d5800" d="M1645 468q7-1 10 6c-2 9-24 23-33 30-6 0-12-6-10-11 5-10 23-20 33-25"/>
  <path fill="#a0a4a5" d="m1426 847 267-20 47-4c6 0 18-2 23-1q-12 4-26 3l-48 4-193 15-69 5zm-89-223 160-125c11-8 84-67 89-67v1l-1 1c-17 11-41 32-58 45l-189 147z"/>
  <path fill="#969287" d="m916 499-53-185-23-78c-4-13-12-37-13-50 10 29 18 63 27 92l57 193 7 25 2 2zM649 836l-1-4c-32-6-305-20-312-27h-1l208 16 107 9z"/>
  <path fill="#7d5800" d="M427 467c9 0 33 14 33 25q0 4-4 7c-9 0-19-7-25-13-8-6-12-12-4-19m980-166c5 0 5 1 8 4 3 10-13 30-21 35-22-5 5-35 13-39M472 494c11-1 30 12 32 22 0 4-1 4-3 8-11 1-30-11-33-23z"/>
  <path fill="#969287" d="M483 407h1c26 24 242 211 246 220l-32-28-66-58-101-90c-5-5-48-40-48-44"/>
  <path fill="#7d5800" d="m1748 736 4 1q3 2 4 6c1 11-24 14-32 16q-6-1-8-8c-1-12 24-14 32-15m-311-477c14 3 6 16 1 25l-10 14c-23-4-1-34 9-39m-278-53q6-1 10 2c5 8 2 30-4 37q-9 1-13-5c-2-9 3-26 7-34m-253 2 8 2c5 9 10 28 1 35-18 2-15-18-14-31q0-4 5-6m691 292q4 2 7 6c1 10-20 21-28 23q-6-1-7-7c0-10 19-20 28-22M638 263q6-1 9 2c7 9 20 24 10 33q-8 1-12-5c-6-8-17-22-7-30"/>
  <path fill="#946700" d="M1169 156q6-1 10 2c8 6 0 29-5 35q-7 2-11-4c-3-9 3-25 6-33"/>
  <path fill="#7d5800" d="M668 307q10 2 16 11c6 9 10 16 0 22q-9-2-15-11c-7-9-10-15-1-22m228-151c12 0 13 23 11 31q-1 4-6 5c-12-2-14-22-11-31q2-4 6-5M368 738c8 0 28 1 32 9q1 5-2 8c-8 0-24 1-30-4-5-3-2-9 0-13m-46-11c9 0 40 4 26 20-11-1-38-4-26-20m1366 19q6 0 10 3c3 11-11 16-20 18q-6 1-9-4c-5-11 13-15 19-17"/>
  <path fill="#775300" d="M1281 1166c18 0 24 0 42 3-9 5-15-4-24 1l-6 1-2 6-2 2c-3-6 3-5-6-9q0-3-2-4"/>
</svg>
